<svg version="1.1" id="Layer_1" xmlns="http://www.w3.org/2000/svg" xmlns:xlink="http://www.w3.org/1999/xlink" x="0px" y="0px"
	 width="100%" viewBox="0 0 512 512" enable-background="new 0 0 512 512" xml:space="preserve">
<path fill="#000000" opacity="1.000000" stroke="none" 
	d="
M234.000000,1.000000 
	C249.020889,1.000000 264.041779,1.000000 279.688934,1.401240 
	C283.889954,2.200783 287.521545,2.323155 291.029449,3.046003 
	C304.903961,5.905032 318.888123,8.398401 332.554688,12.060829 
	C352.506744,17.407669 370.951019,26.338758 388.765472,36.864098 
	C416.348816,53.161160 439.631958,74.282532 459.421082,99.152092 
	C474.495361,118.096313 486.535675,139.049362 495.310211,161.741562 
	C502.944519,181.485016 508.899384,201.652191 511.042816,222.818909 
	C511.423035,226.573502 512.334106,230.274338 513.000000,234.000000 
	C513.000000,249.020889 513.000000,264.041779 512.598755,279.688934 
	C511.799225,283.889954 511.676880,287.521576 510.954010,291.029480 
	C508.095123,304.903870 505.601990,318.887970 501.939423,332.554352 
	C496.592346,352.506134 487.661407,370.950165 477.136200,388.764587 
	C460.839417,416.347748 439.733398,439.650177 414.844482,459.413239 
	C395.891296,474.463074 374.990906,486.595062 352.261932,495.321014 
	C332.500275,502.907776 312.347748,508.900452 291.180939,511.042877 
	C287.426392,511.422882 283.725616,512.334106 280.000000,513.000000 
	C264.979095,513.000000 249.958206,513.000000 234.311050,512.598755 
	C230.110107,511.799194 226.478607,511.676758 222.970779,510.954010 
	C209.096817,508.095459 195.111298,505.608551 181.447693,501.939148 
	C161.501602,496.582581 143.059738,487.640747 125.242424,477.132477 
	C97.645195,460.856171 74.353561,439.734100 54.588570,414.846436 
	C39.536945,395.893799 27.406281,374.992188 18.679991,352.262939 
	C11.092968,332.501099 5.100752,312.348053 2.957160,291.181183 
	C2.576927,287.426575 1.665913,283.725677 0.999999,280.000000 
	C1.000000,264.979095 1.000000,249.958206 1.403174,234.308441 
	C2.868570,225.612808 3.722180,217.511978 5.032962,209.485840 
	C8.656656,187.297333 15.882466,166.213455 25.562634,146.000107 
	C35.237141,125.798607 47.357372,107.156639 62.166229,90.264748 
	C76.083298,74.390068 91.282021,60.028137 108.532074,47.754101 
	C126.737663,34.800163 146.185654,24.232647 167.087036,16.537737 
	C185.097549,9.907104 203.589035,4.837646 222.819229,2.954825 
	C226.573959,2.587200 230.274475,1.665915 234.000000,1.000000 
M220.084229,458.308777 
	C227.674026,459.266052 235.237900,460.632080 242.857758,461.115692 
	C301.938324,464.865540 354.084900,447.143311 396.703217,406.372498 
	C452.011353,353.461914 472.694550,288.025574 456.754517,212.978668 
	C433.831909,105.057365 327.773590,33.642677 215.680023,56.440094 
	C169.649979,65.801620 130.892517,88.556412 100.815445,124.774994 
	C58.689625,175.502594 43.588257,233.808609 56.570168,298.422729 
	C67.376945,352.210663 96.450073,394.718048 141.517044,426.031555 
	C165.027725,442.367340 190.996124,453.093262 220.084229,458.308777 
z"/>
<path fill="#FFFFFF" opacity="1.000000" stroke="none" 
	d="
M0.999999,280.468658 
	C1.665913,283.725677 2.576927,287.426575 2.957160,291.181183 
	C5.100752,312.348053 11.092968,332.501099 18.679991,352.262939 
	C27.406281,374.992188 39.536945,395.893799 54.588570,414.846436 
	C74.353561,439.734100 97.645195,460.856171 125.242424,477.132477 
	C143.059738,487.640747 161.501602,496.582581 181.447693,501.939148 
	C195.111298,505.608551 209.096817,508.095459 222.970779,510.954010 
	C226.478607,511.676758 230.110107,511.799194 233.842392,512.598755 
	C156.406296,513.000000 78.812592,513.000000 1.000000,513.000000 
	C1.000000,435.645905 1.000000,358.291626 0.999999,280.468658 
z"/>
<path fill="#FFFFFF" opacity="1.000000" stroke="none" 
	d="
M513.000000,233.531342 
	C512.334106,230.274338 511.423035,226.573502 511.042816,222.818909 
	C508.899384,201.652191 502.944519,181.485016 495.310211,161.741562 
	C486.535675,139.049362 474.495361,118.096313 459.421082,99.152092 
	C439.631958,74.282532 416.348816,53.161160 388.765472,36.864098 
	C370.951019,26.338758 352.506744,17.407669 332.554688,12.060829 
	C318.888123,8.398401 304.903961,5.905032 291.029449,3.046003 
	C287.521545,2.323155 283.889954,2.200783 280.157593,1.401240 
	C357.593719,1.000000 435.187408,1.000000 513.000000,1.000000 
	C513.000000,78.354088 513.000000,155.708389 513.000000,233.531342 
z"/>
<path fill="#FFFFFF" opacity="1.000000" stroke="none" 
	d="
M233.531342,1.000000 
	C230.274475,1.665915 226.573959,2.587200 222.819229,2.954825 
	C203.589035,4.837646 185.097549,9.907104 167.087036,16.537737 
	C146.185654,24.232647 126.737663,34.800163 108.532074,47.754101 
	C91.282021,60.028137 76.083298,74.390068 62.166229,90.264748 
	C47.357372,107.156639 35.237141,125.798607 25.562634,146.000107 
	C15.882466,166.213455 8.656656,187.297333 5.032962,209.485840 
	C3.722180,217.511978 2.868570,225.612808 1.403174,233.839783 
	C1.000000,156.406281 1.000000,78.812576 1.000000,1.000000 
	C78.354088,1.000000 155.708389,1.000000 233.531342,1.000000 
z"/>
<path fill="#FFFFFF" opacity="1.000000" stroke="none" 
	d="
M280.468658,513.000000 
	C283.725616,512.334106 287.426392,511.422882 291.180939,511.042877 
	C312.347748,508.900452 332.500275,502.907776 352.261932,495.321014 
	C374.990906,486.595062 395.891296,474.463074 414.844482,459.413239 
	C439.733398,439.650177 460.839417,416.347748 477.136200,388.764587 
	C487.661407,370.950165 496.592346,352.506134 501.939423,332.554352 
	C505.601990,318.887970 508.095123,304.903870 510.954010,291.029480 
	C511.676880,287.521576 511.799225,283.889954 512.598755,280.157593 
	C513.000000,357.593719 513.000000,435.187408 513.000000,513.000000 
	C435.645905,513.000000 358.291626,513.000000 280.468658,513.000000 
z"/>
<path fill="#FCFCFC" opacity="1.000000" stroke="none" 
	d="
M219.659958,458.232788 
	C190.996124,453.093262 165.027725,442.367340 141.517044,426.031555 
	C96.450073,394.718048 67.376945,352.210663 56.570168,298.422729 
	C43.588257,233.808609 58.689625,175.502594 100.815445,124.774994 
	C130.892517,88.556412 169.649979,65.801620 215.680023,56.440094 
	C327.773590,33.642677 433.831909,105.057365 456.754517,212.978668 
	C472.694550,288.025574 452.011353,353.461914 396.703217,406.372498 
	C354.084900,447.143311 301.938324,464.865540 242.857758,461.115692 
	C235.237900,460.632080 227.674026,459.266052 219.659958,458.232788 
M388.220306,345.771637 
	C396.349365,339.437805 404.461823,333.082458 412.616486,326.781708 
	C415.482513,324.567261 416.441437,321.871979 416.352997,318.170197 
	C415.996643,303.253815 413.627747,288.689636 409.209412,274.481262 
	C391.526337,217.616165 356.092743,173.887787 308.657837,139.113907 
	C307.249084,138.081192 305.418701,137.354309 303.688538,137.068939 
	C264.386597,130.586090 225.363373,131.920258 186.827042,142.140060 
	C154.736557,150.650421 125.390236,164.563416 100.929359,187.640228 
	C98.533127,189.900848 97.613899,192.202377 97.668152,195.459366 
	C97.916672,210.380035 100.289497,224.959808 104.687645,239.169342 
	C122.349800,296.232208 157.880310,340.094208 205.487091,374.937805 
	C207.007370,376.050476 209.067352,376.666168 210.964767,376.986908 
	C237.081329,381.401794 263.316315,382.056488 289.611176,378.936768 
	C324.528778,374.794006 357.561249,364.927765 388.220306,345.771637 
M251.998215,445.442780 
	C276.474579,446.100983 300.169952,442.288055 323.949432,433.259796 
	C313.509521,432.253326 304.038635,431.813354 294.726654,430.357178 
	C261.983521,425.236725 232.414734,412.055664 204.724518,394.217682 
	C202.297714,392.654358 199.380524,391.600159 196.544281,390.962463 
	C155.602448,381.756989 118.123711,365.755585 87.590881,335.945801 
	C87.049461,335.417206 86.104836,335.301636 84.345619,334.584717 
	C120.005997,402.973450 174.320343,441.127747 251.998215,445.442780 
M414.811371,153.712418 
	C353.981323,62.601372 248.391953,55.842880 191.524353,80.899750 
	C200.480072,81.736877 209.810074,82.129944 218.980408,83.552406 
	C251.717575,88.630432 281.295715,101.757507 308.980743,119.585876 
	C311.422546,121.158325 314.297485,122.352745 317.135010,122.970627 
	C345.782501,129.208664 373.078735,138.940414 397.614624,155.214325 
	C408.229828,162.255081 417.992065,170.581848 427.878235,178.123398 
	C427.884277,178.219604 428.052002,177.467743 427.773041,176.962494 
	C423.600952,169.405350 419.369873,161.880768 414.811371,153.712418 
M368.387695,171.124176 
	C401.480927,208.975403 424.699493,251.642960 431.796265,303.030060 
	C432.844604,301.427643 433.335022,300.781250 433.718658,300.076660 
	C450.579834,269.108582 449.673828,238.477798 430.610931,208.999741 
	C411.177124,178.948181 381.897278,161.648636 349.335510,149.106644 
	C348.759033,148.884598 347.999939,149.136597 347.326050,149.167389 
	C347.097595,149.550201 346.869171,149.933014 346.640717,150.315826 
	C353.730835,157.075928 360.820953,163.836014 368.387695,171.124176 
M84.754425,225.762405 
	C83.938965,221.143982 83.123505,216.525558 82.214516,211.377457 
	C81.433884,212.319107 81.076355,212.656525 80.832634,213.062286 
	C80.149506,214.199631 79.465103,215.340714 78.865730,216.523163 
	C63.386105,247.061371 65.140190,276.813263 83.626068,305.402802 
	C98.609756,328.575989 120.159325,344.194000 144.585022,356.144562 
	C151.435608,359.496277 158.538269,362.332764 165.525299,365.405579 
	C166.143005,364.612671 166.760712,363.819794 167.378418,363.026886 
	C165.883865,362.254486 164.054977,361.804626 162.948578,360.657745 
	C155.325974,352.756195 147.454666,345.044617 140.404846,336.649261 
	C113.286957,304.355499 93.474640,268.290161 84.754425,225.762405 
M211.585587,98.880020 
	C205.947205,98.482101 200.311340,97.783752 194.670029,97.736778 
	C165.855484,97.496849 140.187408,105.320206 120.275330,127.432739 
	C110.444748,138.349670 104.256386,151.097672 100.795219,165.964310 
	C151.226685,128.053925 208.466049,115.831947 269.534393,116.569679 
	C251.263000,107.664253 232.414856,101.507164 211.585587,98.880020 
M275.096100,409.459167 
	C289.376678,413.562073 303.883850,416.165985 318.794586,416.281403 
	C347.591125,416.504272 373.321625,408.978699 393.365021,386.968811 
	C403.397430,375.952118 409.673004,363.043243 413.221893,348.061890 
	C362.759064,385.920166 305.533356,398.240936 244.356842,396.990143 
	C244.291809,397.442932 244.226776,397.895721 244.161758,398.348511 
	C254.220490,401.957367 264.279205,405.566223 275.096100,409.459167 
z"/>
<path fill="#010101" opacity="1.000000" stroke="none" 
	d="
M387.897583,345.938049 
	C357.561249,364.927765 324.528778,374.794006 289.611176,378.936768 
	C263.316315,382.056488 237.081329,381.401794 210.964767,376.986908 
	C209.067352,376.666168 207.007370,376.050476 205.487091,374.937805 
	C157.880310,340.094208 122.349800,296.232208 104.687645,239.169342 
	C100.289497,224.959808 97.916672,210.380035 97.668152,195.459366 
	C97.613899,192.202377 98.533127,189.900848 100.929359,187.640228 
	C125.390236,164.563416 154.736557,150.650421 186.827042,142.140060 
	C225.363373,131.920258 264.386597,130.586090 303.688538,137.068939 
	C305.418701,137.354309 307.249084,138.081192 308.657837,139.113907 
	C356.092743,173.887787 391.526337,217.616165 409.209412,274.481262 
	C413.627747,288.689636 415.996643,303.253815 416.352997,318.170197 
	C416.441437,321.871979 415.482513,324.567261 412.616486,326.781708 
	C404.461823,333.082458 396.349365,339.437805 387.897583,345.938049 
M247.071869,279.571289 
	C250.399902,276.075531 253.727936,272.579803 257.750641,268.354370 
	C269.825470,280.487640 281.502747,292.221375 292.782654,303.555908 
	C296.376434,299.891388 299.947601,296.249939 304.487183,291.621033 
	C296.033813,283.281067 287.265656,274.630524 278.248199,265.734009 
	C298.245514,265.734009 318.022217,265.734009 337.906067,265.734009 
	C337.906067,260.221344 337.906067,255.016876 337.906067,249.487000 
	C317.802216,249.487000 298.056335,249.487000 277.569000,249.487000 
	C286.910736,240.285431 295.716095,231.612198 303.993683,223.458832 
	C299.661163,219.029510 295.984467,215.270645 291.620453,210.809113 
	C280.160614,222.295425 268.572144,233.910706 256.877289,245.632584 
	C245.618469,234.302811 234.114517,222.726349 222.465775,211.004196 
	C218.656296,214.979248 214.993286,218.801453 210.458694,223.533112 
	C218.994843,231.972229 227.778870,240.656403 236.989655,249.762482 
	C216.776230,249.762482 196.911163,249.762482 177.046753,249.762482 
	C177.046753,255.360077 177.046753,260.436829 177.046753,266.055847 
	C197.155838,266.055847 216.989914,266.055847 238.375320,266.055847 
	C228.514847,275.655121 219.724075,284.213013 211.348495,292.366730 
	C215.276901,296.367493 218.943451,300.101562 222.787994,304.016876 
	C230.607147,296.144562 238.589432,288.108002 247.071869,279.571289 
z"/>
<path fill="#030303" opacity="1.000000" stroke="none" 
	d="
M251.537567,445.434235 
	C174.320343,441.127747 120.005997,402.973450 84.345619,334.584717 
	C86.104836,335.301636 87.049461,335.417206 87.590881,335.945801 
	C118.123711,365.755585 155.602448,381.756989 196.544281,390.962463 
	C199.380524,391.600159 202.297714,392.654358 204.724518,394.217682 
	C232.414734,412.055664 261.983521,425.236725 294.726654,430.357178 
	C304.038635,431.813354 313.509521,432.253326 323.949432,433.259796 
	C300.169952,442.288055 276.474579,446.100983 251.537567,445.434235 
z"/>
<path fill="#030303" opacity="1.000000" stroke="none" 
	d="
M414.982056,154.030457 
	C419.369873,161.880768 423.600952,169.405350 427.773041,176.962494 
	C428.052002,177.467743 427.884277,178.219604 427.878235,178.123398 
	C417.992065,170.581848 408.229828,162.255081 397.614624,155.214325 
	C373.078735,138.940414 345.782501,129.208664 317.135010,122.970627 
	C314.297485,122.352745 311.422546,121.158325 308.980743,119.585876 
	C281.295715,101.757507 251.717575,88.630432 218.980408,83.552406 
	C209.810074,82.129944 200.480072,81.736877 191.524353,80.899750 
	C248.391953,55.842880 353.981323,62.601372 414.982056,154.030457 
z"/>
<path fill="#030303" opacity="1.000000" stroke="none" 
	d="
M368.149384,170.860138 
	C360.820953,163.836014 353.730835,157.075928 346.640717,150.315826 
	C346.869171,149.933014 347.097595,149.550201 347.326050,149.167389 
	C347.999939,149.136597 348.759033,148.884598 349.335510,149.106644 
	C381.897278,161.648636 411.177124,178.948181 430.610931,208.999741 
	C449.673828,238.477798 450.579834,269.108582 433.718658,300.076660 
	C433.335022,300.781250 432.844604,301.427643 431.796265,303.030060 
	C424.699493,251.642960 401.480927,208.975403 368.149384,170.860138 
z"/>
<path fill="#030303" opacity="1.000000" stroke="none" 
	d="
M84.828339,226.181808 
	C93.474640,268.290161 113.286957,304.355499 140.404846,336.649261 
	C147.454666,345.044617 155.325974,352.756195 162.948578,360.657745 
	C164.054977,361.804626 165.883865,362.254486 167.378418,363.026886 
	C166.760712,363.819794 166.143005,364.612671 165.525299,365.405579 
	C158.538269,362.332764 151.435608,359.496277 144.585022,356.144562 
	C120.159325,344.194000 98.609756,328.575989 83.626068,305.402802 
	C65.140190,276.813263 63.386105,247.061371 78.865730,216.523163 
	C79.465103,215.340714 80.149506,214.199631 80.832634,213.062286 
	C81.076355,212.656525 81.433884,212.319107 82.214516,211.377457 
	C83.123505,216.525558 83.938965,221.143982 84.828339,226.181808 
z"/>
<path fill="#030303" opacity="1.000000" stroke="none" 
	d="
M212.030121,98.919037 
	C232.414856,101.507164 251.263000,107.664253 269.534393,116.569679 
	C208.466049,115.831947 151.226685,128.053925 100.795219,165.964310 
	C104.256386,151.097672 110.444748,138.349670 120.275330,127.432739 
	C140.187408,105.320206 165.855484,97.496849 194.670029,97.736778 
	C200.311340,97.783752 205.947205,98.482101 212.030121,98.919037 
z"/>
<path fill="#030303" opacity="1.000000" stroke="none" 
	d="
M274.717041,409.317139 
	C264.279205,405.566223 254.220490,401.957367 244.161758,398.348511 
	C244.226776,397.895721 244.291809,397.442932 244.356842,396.990143 
	C305.533356,398.240936 362.759064,385.920166 413.221893,348.061890 
	C409.673004,363.043243 403.397430,375.952118 393.365021,386.968811 
	C373.321625,408.978699 347.591125,416.504272 318.794586,416.281403 
	C303.883850,416.165985 289.376678,413.562073 274.717041,409.317139 
z"/>
<path fill="#FCFCFC" opacity="1.000000" stroke="none" 
	d="
M246.821793,279.821350 
	C238.589432,288.108002 230.607147,296.144562 222.787994,304.016876 
	C218.943451,300.101562 215.276901,296.367493 211.348495,292.366730 
	C219.724075,284.213013 228.514847,275.655121 238.375320,266.055847 
	C216.989914,266.055847 197.155838,266.055847 177.046753,266.055847 
	C177.046753,260.436829 177.046753,255.360077 177.046753,249.762482 
	C196.911163,249.762482 216.776230,249.762482 236.989655,249.762482 
	C227.778870,240.656403 218.994843,231.972229 210.458694,223.533112 
	C214.993286,218.801453 218.656296,214.979248 222.465775,211.004196 
	C234.114517,222.726349 245.618469,234.302811 256.877289,245.632584 
	C268.572144,233.910706 280.160614,222.295425 291.620453,210.809113 
	C295.984467,215.270645 299.661163,219.029510 303.993683,223.458832 
	C295.716095,231.612198 286.910736,240.285431 277.569000,249.487000 
	C298.056335,249.487000 317.802216,249.487000 337.906067,249.487000 
	C337.906067,255.016876 337.906067,260.221344 337.906067,265.734009 
	C318.022217,265.734009 298.245514,265.734009 278.248199,265.734009 
	C287.265656,274.630524 296.033813,283.281067 304.487183,291.621033 
	C299.947601,296.249939 296.376434,299.891388 292.782654,303.555908 
	C281.502747,292.221375 269.825470,280.487640 257.750641,268.354370 
	C253.727936,272.579803 250.399902,276.075531 246.821793,279.821350 
z"/>
</svg>