<svg version="1.1" id="Layer_1" xmlns="http://www.w3.org/2000/svg" xmlns:xlink="http://www.w3.org/1999/xlink" x="0px" y="0px"
	 width="100%" viewBox="0 0 200 200" enable-background="new 0 0 200 200" xml:space="preserve">
<path fill="#222933" opacity="1.000000" stroke="none" 
	d="
M137.000000,201.000000 
	C91.333336,201.000000 46.166672,201.000000 1.000006,201.000000 
	C1.000004,134.333344 1.000004,67.666679 1.000002,1.000015 
	C67.666656,1.000010 134.333313,1.000010 200.999969,1.000005 
	C200.999985,67.666649 200.999985,134.333298 201.000000,200.999969 
	C179.833328,201.000000 158.666672,201.000000 137.000000,201.000000 
M142.403381,56.022274 
	C134.026276,50.454121 124.416878,52.433804 114.777924,51.838146 
	C117.555298,43.675575 115.650459,36.916222 108.829987,32.285221 
	C103.620186,28.747850 97.629555,28.773563 92.306984,32.160645 
	C85.157410,36.710354 83.891510,43.640022 86.262138,51.992363 
	C81.700684,51.992363 77.583290,51.915344 73.469589,52.005997 
	C57.610958,52.355461 45.877548,62.586193 45.403683,78.431137 
	C45.130898,87.552414 42.456108,95.238121 37.958328,102.650352 
	C35.692650,106.384132 35.912975,109.586449 38.135525,113.288551 
	C42.409733,120.408119 45.224678,127.715858 45.347679,136.566193 
	C45.565681,152.252167 56.904728,163.043243 72.479622,163.378738 
	C91.282593,163.783768 110.108253,163.789566 128.910477,163.365112 
	C143.558716,163.034424 155.710632,151.728912 155.619995,137.648361 
	C155.559875,128.308609 158.363937,120.431641 162.822281,112.835983 
	C164.977478,109.164162 164.542221,106.304939 162.822769,102.648598 
	C159.711670,96.032936 155.088593,90.067268 155.839233,81.815628 
	C156.821121,71.021767 151.831573,62.557259 142.403381,56.022274 
z"/>
<path fill="#EDF1FC" opacity="1.000000" stroke="none" 
	d="
M142.746170,56.154228 
	C151.831573,62.557259 156.821121,71.021767 155.839233,81.815628 
	C155.088593,90.067268 159.711670,96.032936 162.822769,102.648598 
	C164.542221,106.304939 164.977478,109.164162 162.822281,112.835983 
	C158.363937,120.431641 155.559875,128.308609 155.619995,137.648361 
	C155.710632,151.728912 143.558716,163.034424 128.910477,163.365112 
	C110.108253,163.789566 91.282593,163.783768 72.479622,163.378738 
	C56.904728,163.043243 45.565681,152.252167 45.347679,136.566193 
	C45.224678,127.715858 42.409733,120.408119 38.135525,113.288551 
	C35.912975,109.586449 35.692650,106.384132 37.958328,102.650352 
	C42.456108,95.238121 45.130898,87.552414 45.403683,78.431137 
	C45.877548,62.586193 57.610958,52.355461 73.469589,52.005997 
	C77.583290,51.915344 81.700684,51.992363 86.262138,51.992363 
	C83.891510,43.640022 85.157410,36.710354 92.306984,32.160645 
	C97.629555,28.773563 103.620186,28.747850 108.829987,32.285221 
	C115.650459,36.916222 117.555298,43.675575 114.777924,51.838146 
	C124.416878,52.433804 134.026276,50.454121 142.746170,56.154228 
M107.328339,108.484070 
	C107.336693,111.650597 107.232887,114.822197 107.375801,117.982635 
	C107.715294,125.490440 112.915550,130.875656 119.821014,131.018219 
	C127.076035,131.167999 132.321365,126.414352 132.668549,118.653389 
	C133.010757,111.003471 133.017059,103.313683 132.665253,95.664627 
	C132.321198,88.183998 127.064484,83.283783 120.236855,83.314552 
	C113.340164,83.345634 107.807487,88.706947 107.401588,95.997719 
	C107.188812,99.819641 107.341011,103.661880 107.328339,108.484070 
M66.639565,104.514526 
	C66.697777,109.511635 66.506851,114.527229 66.875946,119.501274 
	C67.360146,126.026680 72.353310,130.728195 78.533356,131.011185 
	C85.282982,131.320236 91.103546,127.353165 91.608055,120.630180 
	C92.278732,111.692848 92.213547,102.631752 91.573303,93.687622 
	C91.112373,87.248421 85.358711,83.186928 78.917046,83.364090 
	C72.723061,83.534447 67.555367,88.213478 66.882317,94.537903 
	C66.566246,97.507957 66.706192,100.526550 66.639565,104.514526 
z"/>
<path fill="#292F39" opacity="1.000000" stroke="none" 
	d="
M107.328369,107.989510 
	C107.341011,103.661880 107.188812,99.819641 107.401588,95.997719 
	C107.807487,88.706947 113.340164,83.345634 120.236855,83.314552 
	C127.064484,83.283783 132.321198,88.183998 132.665253,95.664627 
	C133.017059,103.313683 133.010757,111.003471 132.668549,118.653389 
	C132.321365,126.414352 127.076035,131.167999 119.821014,131.018219 
	C112.915550,130.875656 107.715294,125.490440 107.375801,117.982635 
	C107.232887,114.822197 107.336693,111.650597 107.328369,107.989510 
z"/>
<path fill="#262D37" opacity="1.000000" stroke="none" 
	d="
M66.639526,104.018837 
	C66.706192,100.526550 66.566246,97.507957 66.882317,94.537903 
	C67.555367,88.213478 72.723061,83.534447 78.917046,83.364090 
	C85.358711,83.186928 91.112373,87.248421 91.573303,93.687622 
	C92.213547,102.631752 92.278732,111.692848 91.608055,120.630180 
	C91.103546,127.353165 85.282982,131.320236 78.533356,131.011185 
	C72.353310,130.728195 67.360146,126.026680 66.875946,119.501274 
	C66.506851,114.527229 66.697777,109.511635 66.639526,104.018837 
z"/>
</svg>