<?xml version="1.0" encoding="utf-8"?>
<svg xmlns="http://www.w3.org/2000/svg" version="1.0" width="64.000000pt" height="60.000000pt" viewBox="0 0 64.000000 60.000000" preserveAspectRatio="xMidYMid meet">

<g transform="translate(0.000000,60.000000) scale(0.100000,-0.100000)" fill="#000000" stroke="none">
<path d="M92 543 c-17 -32 -46 -82 -63 -110 l-31 -53 35 0 c33 0 38 4 81 80&#xA;l47 80 88 0 c83 0 90 2 105 25 9 13 16 27 16 30 0 3 -55 5 -123 5 l-122 0 -33&#xA;-57z"/>
<path d="M366 555 c-15 -23 -15 -27 0 -50 9 -14 20 -25 24 -25 4 0 12 11 18&#xA;25 9 19 9 31 0 50 -6 14 -14 25 -18 25 -4 0 -15 -11 -24 -25z"/>
<path d="M195 490 c15 -30 17 -30 95 -30 44 0 80 2 80 5 0 3 -7 17 -16 30 -15&#xA;23 -22 25 -95 25 l-80 0 16 -30z"/>
<path d="M416 495 c-22 -33 -21 -35 17 -35 26 0 36 6 50 30 l18 30 -34 0 c-26&#xA;0 -39 -6 -51 -25z"/>
<path d="M122 443 c-39 -66 -40 -69 -24 -96 16 -27 17 -27 32 -7 8 11 27 42&#xA;42 68 26 47 27 49 9 76 l-18 27 -41 -68z"/>
<path d="M496 482 c-14 -27 -12 -32 30 -105 l45 -77 -45 -77 c-42 -73 -44 -78&#xA;-30 -105 8 -15 16 -28 18 -28 2 0 31 47 65 105 l62 106 -62 104 c-33 58 -63&#xA;105 -65 105 -2 0 -10 -13 -18 -28z"/>
<path d="M416 418 c44 -86 64 -108 94 -108 17 0 30 3 30 6 0 3 -16 35 -36 70&#xA;-33 59 -38 64 -70 64 l-35 0 17 -32z"/>
<path d="M15 340 c13 -25 22 -30 51 -30 l35 0 -16 30 c-13 25 -22 30 -51 30&#xA;l-35 0 16 -30z"/>
<path d="M15 260 l-16 -30 35 0 c29 0 38 5 51 30 l16 30 -35 0 c-29 0 -38 -5&#xA;-51 -30z"/>
<path d="M437 220 l-38 -70 33 0 c31 0 37 6 71 63 20 35 37 67 37 70 0 4 -15&#xA;7 -32 7 -30 0 -36 -6 -71 -70z"/>
<path d="M98 252 c-16 -26 -15 -29 24 -95 l41 -68 18 28 c18 27 18 28 -13 83&#xA;-46 81 -51 85 -70 52z"/>
<path d="M30 168 c17 -29 45 -79 63 -110 l32 -58 122 0 c68 0 123 2 123 5 0 3&#xA;-7 17 -16 30 -15 23 -22 25 -105 25 l-88 0 -47 80 c-43 76 -48 80 -80 80 l-34&#xA;0 30 -52z"/>
<path d="M195 110 l-16 -30 80 0 c73 0 80 2 95 25 9 13 16 27 16 30 0 3 -36 5&#xA;-80 5 -78 0 -80 0 -95 -30z"/>
<path d="M415 110 c13 -25 22 -30 51 -30 l35 0 -18 30 c-14 24 -24 30 -50 30&#xA;l-34 0 16 -30z"/>
<path d="M369 102 c-14 -25 -14 -32 -2 -55 17 -34 27 -34 41 -2 10 21 9 32 -3&#xA;55 -9 17 -17 30 -18 30 -1 0 -9 -13 -18 -28z"/>
</g>
</svg>