<svg width="464" height="230" viewBox="0 0 464 230" fill="none" xmlns="http://www.w3.org/2000/svg">
<rect width="463.855" height="229.809" fill="#F2F0EE"/>
<path d="M121.815 157.499C107.2 157.499 96.7028 145.706 96.7028 129.569C96.7028 113.431 107.2 101.742 121.815 101.742C128.607 101.742 135.091 105.156 137.973 109.604V80.8459H149.911V156.465H137.973V149.534C135.091 153.982 128.607 157.499 121.815 157.499ZM123.77 147.051C131.489 147.051 137.252 141.051 137.973 132.879V126.052C137.252 117.879 131.489 112.19 123.77 112.19C115.125 112.19 108.95 119.121 108.95 129.465C108.95 139.81 115.125 147.051 123.77 147.051Z" fill="#10022C"/>
<path d="M169.016 156.465H156.975V102.776H169.016V156.465ZM162.841 95.4317C158.621 95.4317 155.431 92.1215 155.431 87.8802C155.431 83.7424 158.621 80.4321 162.841 80.4321C167.266 80.4321 170.56 83.7424 170.56 87.8802C170.56 92.1215 167.266 95.4317 162.841 95.4317Z" fill="#10022C"/>
<path d="M239.825 156.465H227.784V80.8459H239.825V156.465Z" fill="#10022C"/>
<path d="M247.154 175.809V102.776H259.196V109.707C261.974 105.259 268.458 101.742 275.56 101.742C289.968 101.742 300.465 113.535 300.465 129.672C300.465 145.81 289.968 157.499 275.354 157.499C268.458 157.499 261.974 153.982 259.196 149.534V175.809H247.154ZM273.398 147.051C281.94 147.051 288.218 140.12 288.218 129.776C288.218 119.431 281.94 112.19 273.604 112.19C265.577 112.19 259.916 118.19 259.196 126.362V133.189C259.813 141.362 265.577 147.051 273.398 147.051Z" fill="#10022C"/>
<path d="M381.758 157.499C367.144 157.499 356.646 145.706 356.646 129.569C356.646 113.431 367.144 101.742 381.758 101.742C388.551 101.742 395.034 105.156 397.916 109.604V80.8459H409.855V156.465H397.916V149.534C395.034 153.982 388.551 157.499 381.758 157.499ZM383.714 147.051C391.432 147.051 397.196 141.051 397.916 132.879V126.052C397.196 117.879 391.432 112.19 383.714 112.19C375.069 112.19 368.894 119.121 368.894 129.465C368.894 139.81 375.069 147.051 383.714 147.051Z" fill="#10022C"/>
<path fill-rule="evenodd" clip-rule="evenodd" d="M304.5 141.879C304.5 150.879 312.322 157.499 323.128 157.499C328.891 157.499 334.861 155.327 338.771 149.43V156.465H350.71V121.707C350.71 109.19 341.653 101.742 328.377 101.742C315.378 101.742 307.904 108.981 305.375 117.052L316.796 118.555C318.455 114.093 322.222 111.052 328.377 111.052C334.346 111.052 338.771 114.569 338.771 120.983V122.845L323.231 125.121C311.498 126.776 304.5 132.465 304.5 141.879ZM325.186 148.499C320.04 148.499 316.747 145.396 316.747 141.362C316.747 137.017 319.732 134.638 325.186 133.707L338.771 131.327V137.844C336.919 143.431 332.391 148.499 325.186 148.499Z" fill="#10022C"/>
<path fill-rule="evenodd" clip-rule="evenodd" d="M174.5 141.879C174.5 150.878 182.322 157.499 193.128 157.499C198.891 157.499 204.861 155.327 208.771 149.43V156.464H220.71V121.707C220.71 109.19 211.653 101.742 198.377 101.742C185.378 101.742 177.904 108.981 175.375 117.052L186.796 118.555C188.455 114.092 192.222 111.052 198.377 111.052C204.346 111.052 208.771 114.569 208.771 120.983V122.845L193.231 125.12C181.498 126.776 174.5 132.465 174.5 141.879ZM195.186 148.499C190.04 148.499 186.747 145.396 186.747 141.361C186.747 137.017 189.732 134.637 195.186 133.706L208.771 131.327V137.844C206.919 143.43 202.391 148.499 195.186 148.499Z" fill="#10022C"/>
<path d="M108.337 80.2938C109.101 80.4648 109.253 81.7128 108.538 82.0381C94.7377 86.7358 83.8751 98.7461 78.2032 114.735C77.8928 115.51 76.5311 115.323 76.4031 114.495C74.4628 101.956 65.7991 91.9435 54.6381 89.2418C53.8985 89.0628 53.7588 87.9009 54.4472 87.572C68.6171 81.7419 79.2666 69.7823 84.1874 54.5026C84.4947 53.7054 85.9795 53.9067 86.1059 54.7537C88.0137 67.5435 96.9098 77.7385 108.337 80.2938Z" fill="#7C52FF"/>
</svg>
