<svg width="128" height="128" viewBox="0 0 128 128" fill="none" xmlns="http://www.w3.org/2000/svg">
<g clip-path="url(#clip0_0_895)">
<g clip-path="url(#clip1_0_895)">
<path d="M42.0571 0H0V41.8286H42.0571V0Z" fill="url(#paint0_linear_0_895)"/>
<path d="M91.8858 50.5143H49.8286V92.3429H91.8858V50.5143Z" fill="url(#paint1_linear_0_895)"/>
<path d="M91.8858 0H49.8286V41.8286H128V35.8857C128 26.2857 124.114 17.3714 117.486 10.5143C110.629 3.88571 101.486 0 91.8858 0Z" fill="url(#paint2_linear_0_895)"/>
<path d="M0 50.5143V92.3429C0 101.943 3.88571 110.857 10.5143 117.714C17.3714 124.343 26.5143 128.229 36.1143 128.229H42.0571V50.5143H0Z" fill="url(#paint3_linear_0_895)"/>
<path opacity="0.18" d="M0 0L42.0571 41.8286H0V0Z" fill="url(#paint4_linear_0_895)"/>
<path opacity="0.18" d="M49.8286 50.5143L91.8858 92.3429H49.8286V50.5143Z" fill="url(#paint5_linear_0_895)"/>
<path opacity="0.18" d="M0 92.1143C0 101.714 3.88571 110.629 10.5143 117.486C17.3714 124.114 26.5143 128 36.1143 128H42.0571V50.5143L0 92.1143Z" fill="url(#paint6_linear_0_895)"/>
<path opacity="0.18" d="M91.8858 0C101.486 0 110.629 3.88571 117.486 10.5143C124.343 17.1429 128 26.2857 128 35.8857V41.8286H49.8286L91.8858 0Z" fill="url(#paint7_linear_0_895)"/>
</g>
</g>
<defs>
<linearGradient id="paint0_linear_0_895" x1="102.292" y1="106.257" x2="-74.5803" y2="-79.5787" gradientUnits="userSpaceOnUse">
<stop stop-color="#E82A73"/>
<stop offset="0.113" stop-color="#DE2D7A"/>
<stop offset="0.3" stop-color="#C5388F"/>
<stop offset="0.54" stop-color="#9B4AB0"/>
<stop offset="0.818" stop-color="#6262DE"/>
<stop offset="0.994" stop-color="#3B73FF"/>
</linearGradient>
<linearGradient id="paint1_linear_0_895" x1="103.276" y1="105.337" x2="-73.5968" y2="-80.4987" gradientUnits="userSpaceOnUse">
<stop stop-color="#FF3C82"/>
<stop offset="0.103" stop-color="#F53E88"/>
<stop offset="0.274" stop-color="#DC4598"/>
<stop offset="0.492" stop-color="#B251B2"/>
<stop offset="0.745" stop-color="#7961D7"/>
<stop offset="0.994" stop-color="#3B73FF"/>
</linearGradient>
<linearGradient id="paint2_linear_0_895" x1="102.485" y1="85.5361" x2="42.5533" y2="-131.65" gradientUnits="userSpaceOnUse">
<stop stop-color="#E82A73"/>
<stop offset="0.113" stop-color="#DE2D7A"/>
<stop offset="0.3" stop-color="#C5388F"/>
<stop offset="0.54" stop-color="#9B4AB0"/>
<stop offset="0.818" stop-color="#6262DE"/>
<stop offset="0.994" stop-color="#3B73FF"/>
</linearGradient>
<linearGradient id="paint3_linear_0_895" x1="83.0137" y1="103.415" x2="-131.533" y2="38.0528" gradientUnits="userSpaceOnUse">
<stop stop-color="#E82A73"/>
<stop offset="0.113" stop-color="#DE2D7A"/>
<stop offset="0.3" stop-color="#C5388F"/>
<stop offset="0.54" stop-color="#9B4AB0"/>
<stop offset="0.818" stop-color="#6262DE"/>
<stop offset="0.994" stop-color="#3B73FF"/>
</linearGradient>
<linearGradient id="paint4_linear_0_895" x1="-20.0654" y1="-52.4037" x2="40.0312" y2="85.2999" gradientUnits="userSpaceOnUse">
<stop stop-color="#E82A73"/>
<stop offset="0.114" stop-color="#DE286E"/>
<stop offset="0.303" stop-color="#C52361"/>
<stop offset="0.544" stop-color="#9B1A4D"/>
<stop offset="0.825" stop-color="#620F30"/>
<stop offset="0.994" stop-color="#3D081E"/>
</linearGradient>
<linearGradient id="paint5_linear_0_895" x1="29.7864" y1="-1.97916" x2="89.8829" y2="135.725" gradientUnits="userSpaceOnUse">
<stop stop-color="#E82A73"/>
<stop offset="0.114" stop-color="#DE286E"/>
<stop offset="0.303" stop-color="#C52361"/>
<stop offset="0.544" stop-color="#9B1A4D"/>
<stop offset="0.825" stop-color="#620F30"/>
<stop offset="0.994" stop-color="#3D081E"/>
</linearGradient>
<linearGradient id="paint6_linear_0_895" x1="-42.3533" y1="38.7528" x2="93.7513" y2="129.171" gradientUnits="userSpaceOnUse">
<stop stop-color="#E82A73"/>
<stop offset="0.114" stop-color="#DE286E"/>
<stop offset="0.303" stop-color="#C52361"/>
<stop offset="0.544" stop-color="#9B1A4D"/>
<stop offset="0.825" stop-color="#620F30"/>
<stop offset="0.994" stop-color="#3D081E"/>
</linearGradient>
<linearGradient id="paint7_linear_0_895" x1="402.084" y1="2510.27" x2="425.405" y2="2694.4" gradientUnits="userSpaceOnUse">
<stop stop-color="#E82A73"/>
<stop offset="0.114" stop-color="#DE286E"/>
<stop offset="0.303" stop-color="#C52361"/>
<stop offset="0.544" stop-color="#9B1A4D"/>
<stop offset="0.825" stop-color="#620F30"/>
<stop offset="0.994" stop-color="#3D081E"/>
</linearGradient>
<clipPath id="clip0_0_895">
<rect width="128" height="128" fill="white"/>
</clipPath>
<clipPath id="clip1_0_895">
<rect width="128" height="128" fill="white"/>
</clipPath>
</defs>
</svg>
