<svg version="1.1" id="Layer_1" xmlns="http://www.w3.org/2000/svg" xmlns:xlink="http://www.w3.org/1999/xlink" x="0px" y="0px"
	 width="100%" viewBox="0 0 250 250" enable-background="new 0 0 250 250" xml:space="preserve">
<path fill="#FB651C" opacity="1.000000" stroke="none" 
	d="
M163.000000,251.000000 
	C108.666672,251.000000 54.833340,251.000000 1.000007,251.000000 
	C1.000005,167.666672 1.000005,84.333351 1.000002,1.000018 
	C84.333321,1.000012 167.666641,1.000012 250.999969,1.000006 
	C250.999969,84.333313 250.999969,167.666626 250.999985,250.999969 
	C221.833328,251.000000 192.666672,251.000000 163.000000,251.000000 
M146.006180,87.028328 
	C146.006180,87.028328 146.173950,87.103233 145.711929,87.485893 
	C145.517151,88.038490 145.322357,88.591080 145.100235,89.079872 
	C145.100235,89.079872 145.169128,89.071411 144.572891,89.437553 
	C143.771484,91.339172 142.970078,93.240791 142.007324,95.004227 
	C142.007324,95.004227 142.171371,95.143990 141.519775,95.352867 
	C140.387009,97.942741 139.254242,100.532616 138.034119,103.042618 
	C138.034119,103.042618 138.141434,103.092506 137.491074,103.329872 
	C136.687027,105.253929 135.882980,107.177979 135.034821,109.045639 
	C135.034821,109.045639 135.106155,109.051598 134.482910,109.354820 
	C134.023758,110.607803 133.564606,111.860786 133.055862,113.056778 
	C133.055862,113.056778 133.131332,113.060341 132.528931,113.409531 
	C131.398483,115.988754 130.268036,118.567970 129.106995,121.081352 
	C129.106995,121.081352 129.179398,121.086578 128.512268,121.309273 
	C127.032677,120.511459 125.254082,120.001442 124.143944,118.848030 
	C122.501709,117.141777 121.334183,114.978615 120.007484,113.002991 
	C120.007484,113.002991 119.980125,113.036934 120.018684,112.264076 
	C118.666611,109.850563 117.314545,107.437057 116.004692,105.006966 
	C116.004692,105.006966 115.971062,105.039192 116.003685,104.324768 
	C115.324379,103.219589 114.645065,102.114410 114.007141,101.003357 
	C114.007141,101.003357 113.979256,101.034683 114.027222,100.325195 
	C113.357033,99.209351 112.686844,98.093498 112.003082,96.995461 
	C112.003082,96.995461 112.022545,96.988480 112.041916,96.191536 
	C110.693596,93.795860 109.345276,91.400185 107.999931,89.000000 
	C107.999931,89.000000 107.995514,89.002052 108.039711,88.219887 
	C106.703514,85.803947 105.367317,83.388008 104.000000,80.999695 
	C104.000000,80.999695 104.031967,80.973969 104.065063,80.263374 
	C103.370911,79.177322 102.676765,78.091270 101.550385,76.624146 
	C101.371689,76.086151 101.192993,75.548149 101.252754,74.610146 
	C100.838158,74.074356 100.423561,73.538574 99.594521,72.603859 
	C99.410393,72.070312 99.226265,71.536774 99.376289,70.461555 
	C98.908905,66.805626 98.072487,63.382717 94.004723,62.006878 
	C94.004723,62.006878 94.006790,61.979836 93.632622,61.316929 
	C89.004089,60.915039 84.379013,60.307098 79.745041,60.229397 
	C78.238899,60.204140 76.709511,61.564987 75.356598,62.942314 
	C76.938927,66.218521 78.521248,69.494728 80.068962,73.563660 
	C81.499130,75.917648 82.929291,78.271645 84.423767,80.634636 
	C84.423767,80.634636 84.422714,80.699570 84.326973,81.381737 
	C84.915260,82.235313 85.503555,83.088890 86.009430,83.979919 
	C86.009430,83.979919 86.075264,83.917641 86.033920,84.637924 
	C86.739647,85.728142 87.445366,86.818367 88.065628,87.929169 
	C88.065628,87.929169 88.122543,87.862175 88.054329,88.627586 
	C89.375488,90.752121 90.696648,92.876663 91.989883,95.000946 
	C91.989883,95.000946 92.005424,94.977524 92.054985,95.567581 
	C92.389572,96.041367 92.724167,96.515160 93.000214,96.989052 
	C93.000214,96.989052 93.033821,96.941101 93.094955,97.536705 
	C93.444511,98.007034 93.794067,98.477364 94.075859,98.938652 
	C94.075859,98.938652 94.101807,98.875397 94.087471,99.643875 
	C98.747421,108.085129 103.407379,116.526382 108.005951,124.987190 
	C108.005951,124.987190 108.042931,124.934441 107.996819,125.744156 
	C108.804283,128.017975 109.192039,130.574997 110.498993,132.511765 
	C114.214211,138.017288 116.336296,143.757416 116.179169,150.563980 
	C115.881264,163.469421 116.008675,176.387253 116.156151,189.297684 
	C116.178009,191.211258 117.272842,193.112549 118.564026,195.083557 
	C119.024055,195.138229 119.484093,195.192917 120.676773,195.615234 
	C124.148064,195.896439 127.656921,195.951233 131.080658,196.519135 
	C134.911545,197.154587 136.198837,195.787933 136.128052,192.007843 
	C135.931747,181.521347 135.889175,171.029953 135.947403,160.541397 
	C135.994904,151.981873 134.566742,143.175339 139.704590,135.336823 
	C140.099319,134.734619 139.854889,133.713470 139.961121,132.948517 
	C139.961121,132.948517 139.881531,132.930832 140.519485,132.705185 
	C142.247452,129.074631 143.975403,125.444084 145.688538,121.742523 
	C145.688538,121.742523 145.758255,121.722443 146.442383,121.614449 
	C149.634964,116.756584 152.863342,111.921097 155.942764,106.992531 
	C156.157379,106.649040 155.266418,105.614761 154.998489,104.343880 
	C155.289520,103.877045 155.580536,103.410202 156.345978,102.583084 
	C156.556793,102.041641 156.767609,101.500206 157.008453,100.993294 
	C157.008453,100.993294 156.963165,100.987480 157.633728,100.803391 
	C161.073761,98.755638 162.151993,95.614456 161.885010,91.893143 
	C161.885010,91.893143 161.770691,91.853897 162.387192,91.550354 
	C164.261383,87.703804 166.135574,83.857254 167.999390,80.000000 
	C167.999390,80.000000 168.011688,80.006935 168.655457,79.794258 
	C171.867920,76.876404 174.560181,73.705643 173.984207,68.982971 
	C173.984207,68.982971 173.915558,68.957611 174.546524,68.778320 
	C175.359482,66.848785 176.172424,64.919250 176.893402,62.616470 
	C176.893402,62.616470 176.872116,62.232655 176.560425,61.531940 
	C172.064926,61.060452 167.578979,60.385506 163.071289,60.173759 
	C158.410950,59.954842 155.926208,62.326851 156.077652,67.068413 
	C156.077652,67.068413 156.216904,67.144424 155.591064,67.455536 
	C154.777145,69.356209 153.963211,71.256882 153.122635,73.092735 
	C153.122635,73.092735 153.192093,73.083305 152.596985,73.441231 
	C151.439774,76.008980 150.282547,78.576721 149.100952,81.079407 
	C149.100952,81.079407 149.169434,81.067673 148.588715,81.438660 
	C148.094345,82.661957 147.599976,83.885254 147.067352,85.052261 
	C147.067352,85.052261 147.133926,85.038170 146.685120,85.440796 
	C146.512604,85.999969 146.340103,86.559135 146.006180,87.028328 
z"/>
<path fill="#FEFBF6" opacity="1.000000" stroke="none" 
	d="
M176.872116,62.232655 
	C176.872116,62.232655 176.893402,62.616470 176.732849,63.066231 
	C175.686707,65.329865 174.801132,67.143738 173.915558,68.957611 
	C173.915558,68.957611 173.984207,68.982971 173.663452,69.123428 
	C171.565674,72.844894 169.788681,76.425911 168.011688,80.006935 
	C168.011688,80.006935 167.999390,80.000000 167.730408,80.210800 
	C165.564514,84.232361 163.667587,88.043129 161.770691,91.853897 
	C161.770691,91.853897 161.885010,91.893143 161.573883,92.060684 
	C159.829544,95.147980 158.396362,98.067734 156.963165,100.987488 
	C156.963165,100.987480 157.008453,100.993294 156.735992,101.135712 
	C156.266190,101.833214 156.068878,102.388290 155.871567,102.943367 
	C155.580536,103.410202 155.289520,103.877045 154.642670,104.790451 
	C151.444000,110.732170 148.601135,116.227310 145.758255,121.722443 
	C145.758255,121.722443 145.688538,121.742523 145.444977,121.997116 
	C143.428101,125.811409 141.654816,129.371124 139.881531,132.930832 
	C139.881531,132.930832 139.961121,132.948517 139.650955,133.109283 
	C135.334839,139.382401 133.379578,145.864243 133.775940,153.392502 
	C134.325058,163.822464 133.913498,174.303009 133.913330,184.761887 
	C133.913269,188.026520 133.913330,191.291153 133.913330,195.247589 
	C128.829910,195.247589 124.387016,195.247589 119.944122,195.247589 
	C119.484093,195.192917 119.024055,195.138229 118.170036,194.584839 
	C117.754707,181.313751 116.972801,168.483902 117.932426,155.785675 
	C118.837189,143.813400 114.178116,134.299438 108.042931,124.934441 
	C108.042931,124.934441 108.005951,124.987190 107.985596,124.620438 
	C103.344093,115.794258 98.722946,107.334831 94.101807,98.875397 
	C94.101807,98.875397 94.075859,98.938652 94.095139,98.637817 
	C93.754211,97.871696 93.394020,97.406395 93.033821,96.941101 
	C93.033821,96.941101 93.000214,96.989052 93.021149,96.686859 
	C92.696526,95.915619 92.350975,95.446571 92.005424,94.977524 
	C92.005424,94.977524 91.989883,95.000946 91.965088,94.652206 
	C90.667709,92.156372 89.395126,90.009277 88.122543,87.862175 
	C88.122543,87.862175 88.065628,87.929169 88.091751,87.584930 
	C87.437004,86.133011 86.756134,85.025330 86.075264,83.917641 
	C86.075264,83.917641 86.009430,83.979919 86.028656,83.647919 
	C85.506157,82.443802 84.964439,81.571686 84.422714,80.699570 
	C84.422714,80.699570 84.423767,80.634636 84.346039,80.284058 
	C82.880074,77.545967 81.491829,75.158455 80.103577,72.770935 
	C78.521248,69.494728 76.938927,66.218521 75.727737,62.598537 
	C82.068184,62.163120 88.037483,62.071476 94.006790,61.979836 
	C94.006790,61.979836 94.004723,62.006878 94.182053,62.300194 
	C95.920296,65.396751 97.481216,68.199989 99.042137,71.003227 
	C99.226265,71.536774 99.410393,72.070312 99.797714,73.098518 
	C100.338699,74.065498 100.676498,74.537827 101.014297,75.010155 
	C101.192993,75.548149 101.371689,76.086151 101.791985,77.143646 
	C102.699715,78.766754 103.365837,79.870361 104.031967,80.973969 
	C104.031967,80.973969 104.000000,80.999695 104.041382,81.342140 
	C105.387009,84.123741 106.691261,86.562897 107.995514,89.002052 
	C107.995514,89.002052 107.999931,89.000000 108.019989,89.357666 
	C109.367538,92.139717 110.695045,94.564095 112.022552,96.988480 
	C112.022545,96.988480 112.003082,96.995461 112.025719,97.320053 
	C112.691994,98.774658 113.335625,99.904671 113.979256,101.034683 
	C113.979256,101.034683 114.007141,101.003357 113.998993,101.340210 
	C114.650917,102.797768 115.310989,103.918480 115.971062,105.039192 
	C115.971062,105.039192 116.004692,105.006966 116.004868,105.371078 
	C117.330070,108.169098 118.655098,110.603020 119.980125,113.036934 
	C119.980125,113.036934 120.007484,113.002991 120.006798,113.376297 
	C121.973007,118.064491 123.939911,122.379395 126.430267,127.842644 
	C127.639709,124.870407 128.409546,122.978493 129.179398,121.086578 
	C129.179398,121.086578 129.106995,121.081352 129.415817,120.932159 
	C130.860199,118.208763 131.995773,115.634552 133.131332,113.060341 
	C133.131332,113.060341 133.055862,113.056778 133.351929,112.890823 
	C134.134048,111.500450 134.620102,110.276024 135.106155,109.051598 
	C135.106155,109.051598 135.034821,109.045639 135.337799,108.880814 
	C136.474335,106.841492 137.307877,104.966995 138.141434,103.092506 
	C138.141434,103.092506 138.034119,103.042618 138.360214,102.887405 
	C139.848007,100.202789 141.009689,97.673393 142.171371,95.143990 
	C142.171371,95.143990 142.007324,95.004227 142.369278,94.885139 
	C143.543854,92.867836 144.356491,90.969627 145.169128,89.071411 
	C145.169128,89.071411 145.100235,89.079872 145.382507,88.956406 
	C145.834488,88.256371 146.004211,87.679802 146.173950,87.103233 
	C146.173950,87.103233 146.006180,87.028328 146.345963,86.908295 
	C146.835144,86.204903 146.984543,85.621536 147.133942,85.038170 
	C147.133926,85.038170 147.067352,85.052261 147.363037,84.894089 
	C148.162308,83.513168 148.665863,82.290421 149.169434,81.067673 
	C149.169434,81.067673 149.100952,81.079407 149.398010,80.922455 
	C150.860748,78.204773 152.026428,75.644043 153.192093,73.083305 
	C153.192093,73.083305 153.122635,73.092735 153.424164,72.941833 
	C154.556107,70.908768 155.386505,69.026596 156.216904,67.144424 
	C156.216904,67.144424 156.077652,67.068413 156.420990,66.909302 
	C157.949036,62.806301 160.652435,61.728268 164.585526,62.066292 
	C168.655762,62.416107 172.774567,62.200779 176.872116,62.232655 
z"/>
<path fill="#E77A46" opacity="1.000000" stroke="none" 
	d="
M120.310448,195.431412 
	C124.387016,195.247589 128.829910,195.247589 133.913330,195.247589 
	C133.913330,191.291153 133.913269,188.026520 133.913330,184.761887 
	C133.913498,174.303009 134.325058,163.822464 133.775940,153.392502 
	C133.379578,145.864243 135.334839,139.382401 139.624176,133.078552 
	C139.854889,133.713470 140.099319,134.734619 139.704590,135.336823 
	C134.566742,143.175339 135.994904,151.981873 135.947403,160.541397 
	C135.889175,171.029953 135.931747,181.521347 136.128052,192.007843 
	C136.198837,195.787933 134.911545,197.154587 131.080658,196.519135 
	C127.656921,195.951233 124.148064,195.896439 120.310448,195.431412 
z"/>
<path fill="#E77A46" opacity="1.000000" stroke="none" 
	d="
M108.019875,125.339294 
	C114.178116,134.299438 118.837189,143.813400 117.932426,155.785675 
	C116.972801,168.483902 117.754707,181.313751 117.823654,194.552826 
	C117.272842,193.112549 116.178009,191.211258 116.156151,189.297684 
	C116.008675,176.387253 115.881264,163.469421 116.179169,150.563980 
	C116.336296,143.757416 114.214211,138.017288 110.498993,132.511765 
	C109.192039,130.574997 108.804283,128.017975 108.019875,125.339294 
z"/>
<path fill="#E77A46" opacity="1.000000" stroke="none" 
	d="
M94.094635,99.259636 
	C98.722946,107.334831 103.344093,115.794258 108.016281,124.610664 
	C103.407379,116.526382 98.747421,108.085129 94.094635,99.259636 
z"/>
<path fill="#E77A46" opacity="1.000000" stroke="none" 
	d="
M176.716278,61.882298 
	C172.774567,62.200779 168.655762,62.416107 164.585526,62.066292 
	C160.652435,61.728268 157.949036,62.806301 156.479263,66.963120 
	C155.926208,62.326851 158.410950,59.954842 163.071289,60.173759 
	C167.578979,60.385506 172.064926,61.060452 176.716278,61.882298 
z"/>
<path fill="#E77A46" opacity="1.000000" stroke="none" 
	d="
M146.100311,121.668442 
	C148.601135,116.227310 151.444000,110.732170 154.588226,105.069374 
	C155.266418,105.614761 156.157379,106.649040 155.942764,106.992531 
	C152.863342,111.921097 149.634964,116.756584 146.100311,121.668442 
z"/>
<path fill="#E77A46" opacity="1.000000" stroke="none" 
	d="
M93.819702,61.648384 
	C88.037483,62.071476 82.068184,62.163120 75.644821,62.273304 
	C76.709511,61.564987 78.238899,60.204140 79.745041,60.229397 
	C84.379013,60.307098 89.004089,60.915039 93.819702,61.648384 
z"/>
<path fill="#E77A46" opacity="1.000000" stroke="none" 
	d="
M128.845825,121.197922 
	C128.409546,122.978493 127.639709,124.870407 126.430267,127.842644 
	C123.939911,122.379395 121.973007,118.064491 119.985321,113.379791 
	C121.334183,114.978615 122.501709,117.141777 124.143944,118.848030 
	C125.254082,120.001442 127.032677,120.511459 128.845825,121.197922 
z"/>
<path fill="#E77A46" opacity="1.000000" stroke="none" 
	d="
M168.333572,79.900597 
	C169.788681,76.425911 171.565674,72.844894 173.641449,69.094193 
	C174.560181,73.705643 171.867920,76.876404 168.333572,79.900597 
z"/>
<path fill="#E77A46" opacity="1.000000" stroke="none" 
	d="
M162.078934,91.702118 
	C163.667587,88.043129 165.564514,84.232361 167.735596,80.216148 
	C166.135574,83.857254 164.261383,87.703804 162.078934,91.702118 
z"/>
<path fill="#E77A46" opacity="1.000000" stroke="none" 
	d="
M157.298462,100.895439 
	C158.396362,98.067734 159.829544,95.147980 161.530060,92.019073 
	C162.151993,95.614456 161.073761,98.755638 157.298462,100.895439 
z"/>
<path fill="#E77A46" opacity="1.000000" stroke="none" 
	d="
M99.209213,70.732391 
	C97.481216,68.199989 95.920296,65.396751 94.192307,62.290401 
	C98.072487,63.382717 98.908905,66.805626 99.209213,70.732391 
z"/>
<path fill="#E77A46" opacity="1.000000" stroke="none" 
	d="
M140.200500,132.818008 
	C141.654816,129.371124 143.428101,125.811409 145.452393,122.032616 
	C143.975403,125.444084 142.247452,129.074631 140.200500,132.818008 
z"/>
<path fill="#E77A46" opacity="1.000000" stroke="none" 
	d="
M112.032234,96.590012 
	C110.695045,94.564095 109.367538,92.139717 108.018501,89.359924 
	C109.345276,91.400185 110.693596,93.795860 112.032234,96.590012 
z"/>
<path fill="#E77A46" opacity="1.000000" stroke="none" 
	d="
M80.086273,73.167297 
	C81.491829,75.158455 82.880074,77.545967 84.313889,80.279556 
	C82.929291,78.271645 81.499130,75.917648 80.086273,73.167297 
z"/>
<path fill="#E77A46" opacity="1.000000" stroke="none" 
	d="
M108.017609,88.610970 
	C106.691261,86.562897 105.387009,84.123741 104.056938,81.328323 
	C105.367317,83.388008 106.703514,85.803947 108.017609,88.610970 
z"/>
<path fill="#E77A46" opacity="1.000000" stroke="none" 
	d="
M132.830139,113.234940 
	C131.995773,115.634552 130.860199,118.208763 129.431107,120.965088 
	C130.268036,118.567970 131.398483,115.988754 132.830139,113.234940 
z"/>
<path fill="#E77A46" opacity="1.000000" stroke="none" 
	d="
M88.088440,88.244881 
	C89.395126,90.009277 90.667709,92.156372 91.979050,94.652336 
	C90.696648,92.876663 89.375488,90.752121 88.088440,88.244881 
z"/>
<path fill="#E77A46" opacity="1.000000" stroke="none" 
	d="
M119.999405,112.650505 
	C118.655098,110.603020 117.330070,108.169098 115.983757,105.379364 
	C117.314545,107.437057 118.666611,109.850563 119.999405,112.650505 
z"/>
<path fill="#E77A46" opacity="1.000000" stroke="none" 
	d="
M152.894531,73.262268 
	C152.026428,75.644043 150.860748,78.204773 149.410217,80.954987 
	C150.282547,78.576721 151.439774,76.008980 152.894531,73.262268 
z"/>
<path fill="#E77A46" opacity="1.000000" stroke="none" 
	d="
M141.845581,95.248428 
	C141.009689,97.673393 139.848007,100.202789 138.403900,102.927338 
	C139.254242,100.532616 140.387009,97.942741 141.845581,95.248428 
z"/>
<path fill="#E77A46" opacity="1.000000" stroke="none" 
	d="
M174.231049,68.867966 
	C174.801132,67.143738 175.686707,65.329865 176.778839,63.252853 
	C176.172424,64.919250 175.359482,66.848785 174.231049,68.867966 
z"/>
<path fill="#E77A46" opacity="1.000000" stroke="none" 
	d="
M137.816254,103.211189 
	C137.307877,104.966995 136.474335,106.841492 135.359848,108.909004 
	C135.882980,107.177979 136.687027,105.253929 137.816254,103.211189 
z"/>
<path fill="#E77A46" opacity="1.000000" stroke="none" 
	d="
M144.871002,89.254486 
	C144.356491,90.969627 143.543854,92.867836 142.449951,94.954239 
	C142.970078,93.240791 143.771484,91.339172 144.871002,89.254486 
z"/>
<path fill="#E77A46" opacity="1.000000" stroke="none" 
	d="
M155.903992,67.299980 
	C155.386505,69.026596 154.556107,70.908768 153.437500,72.974243 
	C153.963211,71.256882 154.777145,69.356209 155.903992,67.299980 
z"/>
<path fill="#E77A46" opacity="1.000000" stroke="none" 
	d="
M114.003235,100.679939 
	C113.335625,99.904671 112.691994,98.774658 112.032501,97.311142 
	C112.686844,98.093498 113.357033,99.209351 114.003235,100.679939 
z"/>
<path fill="#E77A46" opacity="1.000000" stroke="none" 
	d="
M115.987373,104.681976 
	C115.310989,103.918480 114.650917,102.797768 113.978302,101.343140 
	C114.645065,102.114410 115.324379,103.219589 115.987373,104.681976 
z"/>
<path fill="#E77A46" opacity="1.000000" stroke="none" 
	d="
M86.054596,84.277786 
	C86.756134,85.025330 87.437004,86.133011 88.134483,87.574638 
	C87.445366,86.818367 86.739647,85.728142 86.054596,84.277786 
z"/>
<path fill="#E77A46" opacity="1.000000" stroke="none" 
	d="
M148.879074,81.253166 
	C148.665863,82.290421 148.162308,83.513168 147.382172,84.922226 
	C147.599976,83.885254 148.094345,82.661957 148.879074,81.253166 
z"/>
<path fill="#E77A46" opacity="1.000000" stroke="none" 
	d="
M104.048515,80.618668 
	C103.365837,79.870361 102.699715,78.766754 102.008102,77.334183 
	C102.676765,78.091270 103.370911,79.177322 104.048515,80.618668 
z"/>
<path fill="#E77A46" opacity="1.000000" stroke="none" 
	d="
M134.794525,109.203209 
	C134.620102,110.276024 134.134048,111.500450 133.376740,112.919319 
	C133.564606,111.860786 134.023758,110.607803 134.794525,109.203209 
z"/>
<path fill="#E77A46" opacity="1.000000" stroke="none" 
	d="
M84.374847,81.040649 
	C84.964439,81.571686 85.506157,82.443802 86.069862,83.629196 
	C85.503555,83.088890 84.915260,82.235313 84.374847,81.040649 
z"/>
<path fill="#E77A46" opacity="1.000000" stroke="none" 
	d="
M101.133530,74.810150 
	C100.676498,74.537827 100.338699,74.065498 100.004929,73.297981 
	C100.423561,73.538574 100.838158,74.074356 101.133530,74.810150 
z"/>
<path fill="#E77A46" opacity="1.000000" stroke="none" 
	d="
M156.108765,102.763229 
	C156.068878,102.388290 156.266190,101.833214 156.720978,101.118454 
	C156.767609,101.500206 156.556793,102.041641 156.108765,102.763229 
z"/>
<path fill="#E77A46" opacity="1.000000" stroke="none" 
	d="
M93.064392,97.238907 
	C93.394020,97.406395 93.754211,97.871696 94.129021,98.642342 
	C93.794067,98.477364 93.444511,98.007034 93.064392,97.238907 
z"/>
<path fill="#E77A46" opacity="1.000000" stroke="none" 
	d="
M92.030205,95.272552 
	C92.350975,95.446571 92.696526,95.915619 93.050415,96.686806 
	C92.724167,96.515160 92.389572,96.041367 92.030205,95.272552 
z"/>
<path fill="#E77A46" opacity="1.000000" stroke="none" 
	d="
M145.942932,87.294563 
	C146.004211,87.679802 145.834488,88.256371 145.396164,88.988312 
	C145.322357,88.591080 145.517151,88.038490 145.942932,87.294563 
z"/>
<path fill="#E77A46" opacity="1.000000" stroke="none" 
	d="
M146.909531,85.239487 
	C146.984543,85.621536 146.835144,86.204903 146.426666,86.953285 
	C146.340103,86.559135 146.512604,85.999969 146.909531,85.239487 
z"/>
</svg>