<svg xmlns="http://www.w3.org/2000/svg" xml:space="preserve" viewBox="0 0 400 400"><path fill="#8E48FE" d="M3 1h397.928v400c-132.285 0-264.641 0-397.453-.468C3.014 267.042 3.007 134.022 3 1m274.414 309.78c.18-.292.36-.583.532-.793 0 0-.054-.062.659-.06 3.793-2.402 6.828-5.325 7.19-10.24 0 0-.134.086.513-.062.164-.599.327-1.197.603-1.63 0 0-.146-.137.542-.296 5.904-2.935 6.118-9.623 8.625-14.847l3.457 2.398c-.245-4.089-.495-8.248-.747-12.264 0 0-.046-.135.542-.296l3.166-1.597c-.233-2.193-.47-4.411-.82-6.877 0 0 .157-.223.77-.395l2.98 3.759c-.493-4.374-.897-7.958-1.229-12.3 5.303-16.924 7.76-34.334 8.651-51.982 1.004-19.888-1.35-39.513-4.916-59.887-.943-2.806-1.885-5.612-2.994-8.818 0 0-.015-.433.053-1.263-1.353-3.134-2.705-6.268-4.212-9.586 0 0 .044-.235.14-1.061-1.319-2.226-2.637-4.452-3.912-6.68 0 0-.019.038.006-.65-.33-.8-.659-1.602-.99-3.096.8-.383 1.706-1.203 2.38-1.043.95.226 1.727 1.176 2.579 1.817l1.017-1.026-10.607-15.438v5.555c-2.652-1.734-5.11-3.34-7.394-5.095 0 0-.172.143-.064-.643-1.369-1.11-2.737-2.218-4.522-3.479-.262-.174-.42-.416-.483-1.47-1.416-2.96-2.619-6.195-6.953-5.417 0 0-.037.023-.062-.706l-11.186-10.496 3.264-3.905c-4.366.28-7.31.137-10.097.735-3.09.662-5.079.502-4.701-2.493l-11.695-1.247-.038-1.122 2.471-1.362-.207-.703c-4.756.534-9.512 1.069-15.04 1.59-2.565-.026-5.13-.053-8.345-.173-.436.029-.871.057-1.955-.092-1.134.041-2.267.082-4.28.003-2.363.065-4.727.13-7.928.049-6.768 1.588-13.536 3.177-20.2 4.745 0 0-.102-.028-.88-.015-6.369 3.038-12.739 6.076-19.12 9.143 0 0-.032-.002-.58.032-.403.36-.805.72-1.326 1.033 0 0-.034.123-.516.183-.322.149-.51.398-.569.773 0 0-.024-.005-.701.097-3.865 3.264-7.73 6.527-12.192 10.1-3.38 3.99-7.003 7.8-10.1 11.999-15.603 21.151-20.06 46.18-22.577 71.251-2.355 23.465-4.677 46.569-16.948 68-1.424 2.811-3.014 5.552-4.238 8.447-2.631 6.221-3.17 12.533-.19 19.005 0 0 .125.121.124.807 5.166 8.712 13.508 11.55 25.523 8.564 0 0 .324-.167 1.148-.133 3.307-.883 6.584-1.932 9.94-2.544.953-.174 2.137.92 2.939 1.85 0 0-.127.483-.574.932-.362 1.222-.725 2.443-1.476 4.297-3.13 9.08-5.648 17.986-2.845 27.933 3.084 10.942 9.621 17.839 20.123 21.408 10.53 3.579 21.014 1.65 32.27.068 2.64.71 5.282 1.418 8.67 2.327a938 938 0 0 1-3.93-4.556s-.118-.014.704.098l23.619-10.366.524.8-1.904.783c2.054 2.351 3.58 4.098 4.413 5.777-3.808-1.485-3.833.85-4.364 4.701 2.355-2.16 3.705-3.398 5.735-4.53 4.15 3.687 7.768 8.33 15.121 7.866 5.068-.669 10.136-1.338 15.632-1.47 9.343-1.687 16.77-7.018 23.953-12.743.573-.456.391-1.859.615-2.76 0 0-.064-.053.686-.009 3.878-1.368 6.7-3.69 7.315-7.996 0 0-.06-.015.424-.208.182-.287.365-.574.566-.794 0 0-.067-.018.423-.212m-62.005 25.416 1.15.013c.002-.159.014-.456.004-.457-.382-.03-.766-.032-1.154.444m89.137-61.908-.79-.831c-.114.109-.334.307-.327.314.245.293.512.567 1.117.517m-112.03 62.135s.057.1 0 0"/><path fill="#DAAEFF" d="M2 401c-.333-1.331-.957-2.662-.958-3.994C.993 340.91 1 284.813 1 228.716c0-75.905 0-151.81.5-227.248C2 134.958 2 267.978 2 401"/><path fill="#8654CF" d="M2.25 401C2 267.979 2 134.957 2 1.468 2 1 2.5 1 2.75 1c.257 133.021.264 266.043.26 399.532C3 401 2.5 401 2.25 401"/><path fill="#FEFEFE" d="M131.587 279.916s.127-.483.545-.948c0-2.198-.034-4.204-.992-5.553-.51-.717-2.622-.295-4.4-.414l2.96 3.274c-3.521-.502-5.673-1.05-7.826-1.05-2.273 0-5.719-1.9-6.268 2.785-6.351-.862-12.31-1.735-18.192-2.596l-.5-5.007-4.749.603s-.126-.12-.055-.563c.45-4.26.85-8.076 1.197-11.897.116-1.277-.42-3.254.224-3.738 4.18-3.14 3.435-7.539 3.485-11.775 11.723-21.031 14.045-44.135 16.4-67.6 2.516-25.071 6.974-50.1 22.577-71.251 3.097-4.199 6.72-8.01 10.816-12.118 5.024-1.482 9.333-2.844 14.14-4.363l-1.987-5.72s.024.005.243-.079c.494-.241.698-.463.832-.749 0 0 .034-.123.368-.142.736-.362 1.138-.705 1.54-1.048 0 0 .031.002.421.011 3.16.119 6.569 1.301 8.565.112 4.052-2.413 7.34-6.11 10.944-9.277 0 0 .102.028.435.126 2.815.637 7.319 1.982 7.473 1.595 1.822-4.578 5.962-2.594 8.917-3.696 1.546-.577 2.883-1.713 4.315-2.597 2.363-.064 4.727-.13 7.55.244l2.532 2.397 1.936-2.66c.436-.029.871-.057 1.619.34.727 1.012 1.376 2.161 1.522 2.1 4.213-1.756 7.035-.977 7.431 3.73 4.745 2.276 6.685-1.63 9.789-3.543.766.124 1.198.235 1.822.55.555.28.916.356 1.65.427 2.427.608 4.645.91 6.508 1.887 8.908 4.676 17.72 9.535 26.565 14.328 0 0 .037-.023.168.3 2.365 2.163 4.598 4 6.831 5.838.054.31.212.552.82 1.105 1.586 1.548 2.827 2.717 4.068 3.886 0 0 .172-.143.153.261 3.699 5.442 7.416 10.48 11.183 15.825.642 1.132 1.234 1.958 1.826 2.785 0 0 .02-.039.04.314 1.279 2.62 2.537 4.886 3.795 7.154 0 0-.044.235.044.713 1.41 3.63 2.734 6.784 4.056 9.938 0 0 .015.433.077 1.015.975 3.425 1.888 6.268 2.8 9.11 3.697 19.5 6.052 39.125 5.048 59.013-.89 17.648-3.348 35.058-8.815 52.709-.843 3.146-1.521 5.566-2.2 7.986 0 0-.158.223-.36.627-1.044 3.013-1.888 5.622-2.731 8.23 0 0 .046.136-.247.244-4.105 8.327-7.917 16.546-11.73 24.764 0 0 .146.137-.185.186-.527.609-.723 1.169-.919 1.73 0 0 .134-.088-.235.063-2.758 3.463-5.146 6.776-7.534 10.088 0 0 .054.062-.199.1-.425.34-.597.644-.769.948 0 0 .067.018-.198.064-.439.344-.612.643-.785.941 0 0 .06.015-.261.131-2.796 2.69-5.27 5.263-7.744 7.836 0 0 .064.054-.283.139-8.447 5.017-16.548 9.948-24.649 14.88-5.068.669-10.136 1.338-15.829 1.74-4.264-2.683-8.455-4.575-11.394-7.66-3.104-3.26-5.016-7.654-7.481-11.605-3.82 2.513-7.72 5.3-11.833 7.72-4.099 2.414-8.413 4.46-12.633 6.669 0 0 .118.014-.289-.009-1.973.62-3.54 1.262-5.106 1.905-10.483 1.928-20.967 3.858-31.497.279-10.502-3.57-17.039-10.466-20.123-21.408-2.803-9.947-.284-18.853 3.393-28.217 2.263 1.329 3.978 2.94 6.337 5.158-.69-3.215-.872-5.496-1.736-7.48-.433-.993-2.111-1.444-3.226-2.14m82.889-138.94c-5.52-.06-9.06 2.749-10.92 7.76-3.045 8.206-3.117 16.55-.714 24.91 1.92 6.68 5.696 9.95 11.318 10.077 5.238.118 9.785-3.471 11.885-9.662 2.641-7.786 2.68-15.657.061-23.454-1.745-5.196-4.875-9.025-11.63-9.63m57.835 10.39c-2.811-7.655-6.932-10.874-13.255-10.353-5.65.464-10.13 4.935-10.882 12.369-.628 6.201-.672 12.616.184 18.774 1.012 7.276 5.938 11.462 11.698 11.55 5.717.087 11.229-3.952 12.297-10.957 1.028-6.744.276-13.759-.042-21.384m19.439-14.997-1.325 8.269 1.4.214c2.008-3.838 4.644-7.544 1.8-13.674-.84 2.174-1.27 3.288-1.875 5.19"/><path fill="#8F51EF" d="M237.024 69.196c-.432-.112-.864-.223-1.91-.589-3.628-.931-6.642-1.608-9.657-2.285l14.268-1.603.207.703-2.471 1.362.038 1.122 11.695 1.247c-.378 2.995 1.612 3.155 4.701 2.493 2.786-.598 5.73-.455 10.097-.735l-3.264 3.905c3.736 3.506 7.46 7 11.199 10.86-8.833-4.428-17.645-9.287-26.553-13.963-1.863-.978-4.081-1.28-6.697-2.102-.926-.279-1.29-.347-1.653-.415"/><path fill="#9055EE" d="M184.245 331.884c3.809-2.264 8.123-4.311 12.222-6.724 4.114-2.422 8.013-5.208 11.833-7.721 2.465 3.95 4.377 8.346 7.481 11.605 2.939 3.085 7.13 4.977 10.935 7.688-6.27.703-9.887-3.94-14.376-7.68-.34-.052-.34-.05-.34-.05-1.525-1.747-3.05-3.494-5.105-5.845-.1.04.902-.37 1.904-.783l-.524-.8c-7.873 3.456-15.746 6.91-24.03 10.31"/><path fill="#8F51EF" d="M295.112 112.949c-3.717-5.038-7.434-10.076-11.219-15.443 2.39 1.276 4.847 2.882 7.5 4.616v-5.555l10.606 15.438-1.017 1.026c-.852-.641-1.63-1.591-2.58-1.817-.673-.16-1.578.66-2.607 1.393-.227.35-.683.342-.683.342"/><path fill="#F7EBF7" d="M92.165 271.353c1.478-.53 2.955-.718 4.749-.946l.5 5.007c5.883.861 11.84 1.734 18.192 2.596.394-.01.394-.01.433.332.454.865.869 1.387 1.284 1.91-11.651 2.993-19.993.156-25.158-8.899M96.742 243.237c.224 4.036.97 8.435-3.21 11.575-.644.484-.11 2.461-.225 3.738-.348 3.821-.747 7.637-1.176 11.812-3.072-5.945-2.532-12.257.099-18.478 1.224-2.895 2.814-5.636 4.512-8.647"/><path fill="#8F5CE2" d="M287.11 297.779c3.468-8.14 7.28-16.358 11.386-24.756.544 3.98.794 8.138 1.04 12.227l-3.458-2.398c-2.507 5.224-2.72 11.912-8.969 14.927"/><path fill="#F7F0F9" d="M181.486 70.82c-3.214 3.16-6.503 6.857-10.555 9.27-1.996 1.19-5.405.007-8.559-.126 5.986-3.062 12.356-6.1 19.114-9.144"/><path fill="#F7EBF7" d="M116 278c.155-4.675 3.6-2.775 5.874-2.775 2.153 0 4.305.548 7.826 1.05l-2.96-3.274c1.778.119 3.89-.303 4.4.414.958 1.349.992 3.355 1.13 5.345-1.358-.256-2.542-1.351-3.494-1.177-3.357.612-6.634 1.66-10.394 2.197-1.096-.825-1.739-1.302-2.382-1.78"/><path fill="#8F5CE2" d="M243.218 335.233c7.887-5.2 15.988-10.132 24.408-15.18.15.846.332 2.249-.24 2.705-7.183 5.725-14.611 11.056-24.168 12.475"/><path fill="#F7F0F9" d="M225.072 66.316c3.4.683 6.414 1.36 9.707 2.279-2.489 2.166-4.429 6.073-9.174 3.797-.396-4.707-3.218-5.486-7.431-3.73-.146.061-.795-1.088-1.197-2.053 2.578-.353 5.143-.326 8.095-.293m2.37 3.393.803.842.349-.333c-.268-.28-.536-.561-1.152-.51"/><path fill="#FAF2F6" d="M158.623 82.036c1.037 1.958 1.735 3.967 2.325 5.669-4.806 1.519-9.115 2.881-13.84 4.208 3.448-3.299 7.312-6.562 11.515-9.877"/><path fill="#F7F0F9" d="M202.596 66.169c-1.013.956-2.35 2.092-3.896 2.669-2.955 1.102-7.095-.882-8.917 3.696-.154.387-4.658-.958-7.525-1.585 6.383-1.676 13.151-3.265 20.338-4.78"/><path fill="#F7EBF7" d="M131.364 280.14c1.338.472 3.016.923 3.449 1.916.864 1.984 1.046 4.265 1.736 7.48-2.36-2.218-4.074-3.83-6.143-5.474.01-1.254.372-2.475.958-3.921"/><path fill="#8F5CE2" d="M278.248 309.926c2.032-3.313 4.42-6.626 7.1-10.069.085 4.745-2.95 7.668-7.1 10.069"/><path fill="#9055EE" d="M178.825 333.898c1.18-.817 2.747-1.46 4.678-2.12 1.373 1.147 2.382 2.313 4.38 4.62-3.389-.909-6.03-1.618-9.058-2.5"/><path fill="#8F5CE2" d="M302.14 263.907c.372-2.334 1.05-4.754 1.856-7.522.533 3.237.937 6.821 1.43 11.195-1.408-1.776-2.194-2.767-3.287-3.673M268.311 319.967c2.1-2.595 4.573-5.169 7.349-7.882-.274 4.213-3.096 6.536-7.349 7.882"/><path fill="#8F51EF" d="M278.934 91.807c-2.23-1.466-4.462-3.303-6.828-5.443 4.204-1.124 5.407 2.11 6.828 5.443"/><path fill="#8F5CE2" d="M299.036 272.77c.55-2.528 1.393-5.137 2.495-8.026.496 1.938.732 4.156.965 6.35-1.034.521-2.1 1.059-3.46 1.677"/><path fill="#9166D6" d="M304.957 133.745c-1.356-2.739-2.68-5.892-4.013-9.432 1.342 2.749 2.694 5.883 4.013 9.432"/><path fill="#9055EE" d="m212 329-5.056 4.635c.53-3.852.556-6.186 4.71-4.667z"/><path fill="#9166D6" d="M307.866 143.848c-.978-2.405-1.89-5.248-2.782-8.473.963 2.424 1.905 5.23 2.782 8.473M300.87 123.096c-1.305-1.855-2.563-4.122-3.863-6.74a52 52 0 0 1 3.864 6.74"/><path fill="#F7F0F9" d="M214.709 66.133c-.321.975-.967 1.862-1.612 2.749-.69-.654-1.38-1.307-2.091-2.338 1.112-.418 2.245-.459 3.703-.41"/><path fill="#8F51EF" d="M283.88 96.777c-1.295-.776-2.536-1.945-3.914-3.417a19.2 19.2 0 0 1 3.914 3.417"/><path fill="#FEFEFE" d="M116.04 278.342c.603.136 1.246.613 1.93 1.42.041.33-.283.498-.465.494-.597-.527-1.012-1.05-1.466-1.914"/><path fill="#9055EE" d="M215.411 335.954c.386-.235.77-.233 1.152-.203.01 0-.002.298-.004.457-.383-.004-.767-.009-1.148-.254"/><path fill="#9166D6" d="M295.162 113.256c-.05-.307.406-.3.635-.303.557.798.886 1.6 1.203 2.744-.604-.483-1.196-1.309-1.838-2.441"/><path fill="#8F5CE2" d="M304.376 274.45c-.435-.113-.702-.387-.947-.68-.007-.007.213-.205.327-.314.263.277.527.554.62.995M285.985 299.699c-.128-.486.068-1.046.54-1.738.11.467-.053 1.065-.54 1.738"/><path fill="#F7F0F9" d="M161.67 79.984c-.127.326-.529.669-1.206 1.054.128-.317.53-.677 1.207-1.054"/><path fill="#8F5CE2" d="M276.183 311.881c-.069-.201.104-.5.533-.878.074.208-.109.495-.533.878M277.169 310.876c-.073-.207.1-.51.53-.892.076.213-.105.504-.53.892"/><path fill="#9055EE" d="M192.544 336.472c.03.05-.029-.05 0 0"/><path fill="#FAF2F6" d="M159.796 81.187c.107.256-.097.478-.588.707-.163-.279.025-.528.588-.707"/><path fill="#050505" d="M214.887 140.991c6.344.591 9.474 4.42 11.219 9.616 2.618 7.797 2.58 15.668-.06 23.454-2.1 6.19-6.648 9.78-11.886 9.662-5.622-.127-9.398-3.397-11.318-10.077-2.403-8.36-2.331-16.704.714-24.91 1.86-5.011 5.4-7.82 11.331-7.745"/><path fill="#060606" d="M272.485 151.73c.144 7.261.896 14.276-.132 21.02-1.068 7.005-6.58 11.044-12.297 10.957-5.76-.088-10.686-4.274-11.698-11.55-.856-6.158-.812-12.573-.184-18.774.753-7.434 5.233-11.905 10.882-12.37 6.323-.52 10.444 2.699 13.429 10.718"/><path fill="#FEFFF2" d="M291.837 135.974c.518-1.508.948-2.622 1.787-4.796 2.845 6.13.21 9.836-1.8 13.674l-1.399-.214c.442-2.757.883-5.513 1.412-8.664"/><path fill="#F7F0F9" d="M237.216 69.4c.172-.136.535-.068 1.089.216-.173.139-.534.063-1.089-.217"/><path fill="#FEFEFE" d="M227.616 69.542c.442.115.71.395.978.676l-.349.333c-.268-.28-.535-.561-.63-1.009"/></svg>