<?xml version="1.0" encoding="UTF-8"?>
<svg version="1.1" xmlns="http://www.w3.org/2000/svg" width="256" height="256">
<path d="M0 0 C84.48 0 168.96 0 256 0 C256 84.48 256 168.96 256 256 C171.52 256 87.04 256 0 256 C0 171.52 0 87.04 0 0 Z " fill="#C672A5" transform="translate(0,0)"/>
<path d="M0 0 C10.89 0 21.78 0 33 0 C33.33 19.47 33.66 38.94 34 59 C38.95 52.4 43.9 45.8 49 39 C53.9375 32.5625 53.9375 32.5625 56.25390625 29.56640625 C60.69167558 23.81767228 65.07521819 18.02712972 69.46850586 12.24438477 C70.45475952 10.94778931 70.45475952 10.94778931 71.4609375 9.625 C72.04665527 8.85414062 72.63237305 8.08328125 73.23583984 7.2890625 C73.8180127 6.53367187 74.40018555 5.77828125 75 5 C75.54897949 4.08968018 76.09795898 3.17936035 76.66357422 2.24145508 C79.6652822 -0.63823991 81.3627743 -0.56843568 85.39935303 -0.56648254 C86.23178528 -0.54067612 87.06421753 -0.51486969 87.921875 -0.48828125 C89.21185394 -0.47766914 89.21185394 -0.47766914 90.52789307 -0.46684265 C93.2694875 -0.43889611 96.009025 -0.3761598 98.75 -0.3125 C100.61064755 -0.28741734 102.47132717 -0.26460411 104.33203125 -0.24414062 C108.88881106 -0.18906887 113.44405704 -0.10279655 118 0 C115.88661363 3.21097565 113.79293011 6.38786315 111.37109375 9.375 C110.66327759 10.25297241 110.66327759 10.25297241 109.94116211 11.14868164 C109.44495361 11.7596167 108.94874512 12.37055176 108.4375 13 C107.36407099 14.33161841 106.29116587 15.66365927 105.21875 16.99609375 C104.67992187 17.66495605 104.14109375 18.33381836 103.5859375 19.02294922 C101.18205932 22.01965573 98.80746504 25.03894337 96.4375 28.0625 C95.98818115 28.63548828 95.5388623 29.20847656 95.07592773 29.79882812 C94.17005813 30.95444151 93.26437713 32.11020276 92.35888672 33.26611328 C90.53311136 35.59573178 88.70437539 37.92301596 86.87524414 40.25 C85.9638146 41.40979531 85.05283892 42.56994744 84.14233398 43.73046875 C81.75996986 46.76622028 79.37004272 49.79559843 76.96875 52.81640625 C76.22334961 53.75709961 76.22334961 53.75709961 75.46289062 54.71679688 C74.51605725 55.91139973 73.56698201 57.10423055 72.61523438 58.29492188 C70.15188637 61.40826876 67.95616694 64.54453406 66 68 C66.60585937 68.71542969 67.21171875 69.43085938 67.8359375 70.16796875 C72.73549658 75.99467516 77.5014038 81.88153775 82.11352539 87.93920898 C85.2840292 92.09456927 88.53267882 96.18054277 91.8125 100.25 C96.7573217 106.39041381 101.56016809 112.62930224 106.32617188 118.90917969 C110.26016289 124.07703513 114.31369604 129.11722472 118.48828125 134.09375 C120 136 120 136 120 137 C81.4085121 140.11264586 81.4085121 140.11264586 73.6875 133.6953125 C70.56610776 130.05522695 68.4193208 125.9472959 66.36230469 121.63476562 C63.97493683 117.01747639 60.69252327 113.08135759 57.5 109 C56.253096 107.33719035 55.00959402 105.67182407 53.76953125 104.00390625 C49.38596955 98.1587755 44.89947961 92.395274 40.390625 86.64648438 C39.84277344 85.94716797 39.29492188 85.24785156 38.73046875 84.52734375 C38.24989014 83.91624756 37.76931152 83.30515137 37.27416992 82.67553711 C36.12246934 81.16104754 35.05540264 79.58310396 34 78 C33.67 97.47 33.34 116.94 33 137 C22.11 137 11.22 137 0 137 C0 91.79 0 46.58 0 0 Z " fill="#FEFEFE" transform="translate(72,59)"/>
</svg>
