<svg version="1.1" id="Layer_1" xmlns:x="ns_extend;" xmlns:i="ns_ai;" xmlns:graph="ns_graphs;" xmlns:sketch="http://www.bohemiancoding.com/sketch/ns" xmlns="http://www.w3.org/2000/svg" xmlns:xlink="http://www.w3.org/1999/xlink" x="0px" y="0px" viewBox="0 0 43 54.4" style="enable-background:new 0 0 43 54.4;" xml:space="preserve">
 <style type="text/css">
  .st0{fill-rule:evenodd;clip-rule:evenodd;fill:#509EE3;}
	.st1{opacity:0.2;fill-rule:evenodd;clip-rule:evenodd;fill:#509EE3;enable-background:new    ;}
 </style>
 <metadata>
  <sfw xmlns="ns_sfw;">
   <slices>
   </slices>
   <sliceSourceBounds bottomLeftOrigin="true" height="54.4" width="43" x="8" y="-1.7">
   </sliceSourceBounds>
  </sfw>
 </metadata>
 <g>
  <g>
   <ellipse id="Oval-7" sketch:type="MSShapeGroup" class="st0" cx="3.3" cy="13.9" rx="3.3" ry="3.3">
   </ellipse>
   <ellipse id="Oval-7_1_" sketch:type="MSShapeGroup" class="st0" cx="3.3" cy="23.2" rx="3.3" ry="3.3">
   </ellipse>
   <ellipse id="Oval-7_2_" sketch:type="MSShapeGroup" class="st1" cx="12.4" cy="13.9" rx="3.3" ry="3.3">
   </ellipse>
   <ellipse id="Oval-7_3_" sketch:type="MSShapeGroup" class="st0" cx="12.4" cy="23.3" rx="3.3" ry="3.3">
   </ellipse>
   <ellipse id="Oval-8" sketch:type="MSShapeGroup" class="st1" cx="21.5" cy="13.9" rx="3.3" ry="3.3">
   </ellipse>
   <ellipse id="Oval-8_1_" sketch:type="MSShapeGroup" class="st1" cx="21.5" cy="3.3" rx="3.3" ry="3.3">
   </ellipse>
   <ellipse id="Oval-8_2_" sketch:type="MSShapeGroup" class="st1" cx="21.5" cy="23.3" rx="3.3" ry="3.3">
   </ellipse>
   <ellipse id="Oval-9" sketch:type="MSShapeGroup" class="st1" cx="30.6" cy="13.9" rx="3.3" ry="3.3">
   </ellipse>
   <ellipse id="Oval-9_1_" sketch:type="MSShapeGroup" class="st0" cx="39.7" cy="13.9" rx="3.3" ry="3.3">
   </ellipse>
   <ellipse id="Oval-9_2_" sketch:type="MSShapeGroup" class="st0" cx="30.6" cy="23.3" rx="3.3" ry="3.3">
   </ellipse>
   <ellipse id="Oval-9_3_" sketch:type="MSShapeGroup" class="st0" cx="39.7" cy="23.3" rx="3.3" ry="3.3">
   </ellipse>
   <ellipse id="Oval-13" sketch:type="MSShapeGroup" class="st0" cx="3.3" cy="32.4" rx="3.3" ry="3.3">
   </ellipse>
   <ellipse id="Oval-12" sketch:type="MSShapeGroup" class="st1" cx="12.4" cy="32.5" rx="3.3" ry="3.3">
   </ellipse>
   <ellipse id="Oval-11" sketch:type="MSShapeGroup" class="st0" cx="21.5" cy="32.5" rx="3.3" ry="3.3">
   </ellipse>
   <ellipse id="Oval-10" sketch:type="MSShapeGroup" class="st1" cx="30.6" cy="32.5" rx="3.3" ry="3.3">
   </ellipse>
   <ellipse id="Oval-10_1_" sketch:type="MSShapeGroup" class="st0" cx="39.7" cy="32.5" rx="3.3" ry="3.3">
   </ellipse>
   <ellipse id="Oval-17" sketch:type="MSShapeGroup" class="st0" cx="3.3" cy="41.7" rx="3.3" ry="3.3">
   </ellipse>
   <ellipse id="Oval-16" sketch:type="MSShapeGroup" class="st1" cx="12.4" cy="41.8" rx="3.3" ry="3.3">
   </ellipse>
   <ellipse id="Oval-15" sketch:type="MSShapeGroup" class="st1" cx="21.5" cy="41.8" rx="3.3" ry="3.3">
   </ellipse>
   <ellipse id="Oval-15_1_" sketch:type="MSShapeGroup" class="st1" cx="21.5" cy="51.1" rx="3.3" ry="3.3">
   </ellipse>
   <ellipse id="Oval-14" sketch:type="MSShapeGroup" class="st1" cx="30.6" cy="41.8" rx="3.3" ry="3.3">
   </ellipse>
   <ellipse id="Oval-14_1_" sketch:type="MSShapeGroup" class="st0" cx="39.7" cy="41.8" rx="3.3" ry="3.3">
   </ellipse>
  </g>
 </g>
</svg>