<?xml version="1.0" encoding="UTF-8"?>
<svg id="logosandtypes_com" data-name="logosandtypes com" xmlns="http://www.w3.org/2000/svg" viewBox="0 0 150 150">
  <defs>
    <style>
      .cls-1 {
        fill: none;
      }
    </style>
  </defs>
  <g id="Layer_3" data-name="Layer 3">
    <g id="Layer_3-2" data-name="Layer 3-2">
      <g id="Layer_2" data-name="Layer 2">
        <path id="Layer_3-3" data-name="Layer 3-3" class="cls-1" d="M0,0H150V150H0V0Z"/>
      </g>
    </g>
  </g>
  <path d="M70.28,7.77c-19.19,1.54-36.82,11.19-48.6,26.58-1.21,1.59-4.1,5.87-4.1,6.08,.44,.23,18.05,.08,18.52,.29,7.54,.83,12.5,5.86,14.29,13.15,.77,2.99,.8,3.57,.89,14.06l.09,9.9s3.08-13.08,3.08-13.08c1.69-7.2,3.28-13.74,3.52-14.55,1.56-5.25,4.05-8.8,7.03-9.96,3.97-1.3,7.04,.52,8.21,4.88,.85,2.98,.82,2.01,.91,27.94,.08,22.24,.11,24.03,.35,24.75,3.73,8.03,6.99-14.11,10.16-25.52,2.78-11.54,5.26-21.64,5.5-22.45,2.7-11.01,13.85-14.82,15.7-2.18,.23,1.27,.44,43.47,.44,43.47,2.62,9.84,6.64,6.78,20.09,7.3,0,0,13-.05,13-.05C156.16,52.5,119.21,3.81,70.28,7.77Z"/>
  <path d="M66.64,46.42c-.97,.42-2,2.16-2.99,5.08-.3,.88-3.27,13.03-6.59,27.02-3.33,14-6.17,25.7-6.34,26.01-.58,.83-1.06,1.79-2.36,1.63-.92,0-1-.03-1.57-.59-1.24-1.21-1.13,.85-1.22-24.89-.09-22.53-.09-22.94-.41-24.27-.92-3.99-2.84-6.73-5.69-8.07-2.48-1.16-3.07-1.22-15.2-1.22,0,0-10.24-.02-10.24-.02-17.02,36.1,2.63,81.06,40.98,92.84,31.14,10.46,67.58-5.05,81.57-34.91h-11.76c-13.9-.42-19.08,2.08-23.45-9.71-.85-2.99-.82-2.39-.92-25.52-.06-14.79-.15-21.58-.26-21.97-.44-1.53-.67-1.74-1.45-1.41-1.13,.47-2.39,2.54-3.3,5.38-.24,.79-2.72,10.78-5.5,22.21-2.78,11.42-5.34,21.59-5.67,22.59-1.18,3.52-2.6,6.06-4.26,7.61-4.07,3.67-9.43,.97-10.77-4.49-.77-2.66-.74-2.01-.85-27.58-.2-25.35,.35-26.15-1.75-25.72Z"/>
</svg>