<svg fill="none" height="150" viewBox="0 0 597 150" width="597" xmlns="http://www.w3.org/2000/svg">
<path d="M260.208 0.0996094H249.603C249.259 0.0996094 248.98 0.378443 248.98 0.722404V6.98403C248.98 7.32799 249.259 7.60683 249.603 7.60683H260.208C260.552 7.60683 260.83 7.32799 260.83 6.98403V0.722404C260.83 0.378443 260.552 0.0996094 260.208 0.0996094Z" fill="#000434"></path>
<path d="M260.161 9.49219H249.556C249.212 9.49219 248.934 9.77102 248.934 10.115V37.5012C248.934 37.8452 249.212 38.124 249.556 38.124H260.161C260.505 38.124 260.784 37.8452 260.784 37.5012V10.115C260.784 9.77102 260.505 9.49219 260.161 9.49219Z" fill="#000434"></path>
<path d="M246.235 0.0996094H235.631C235.287 0.0996094 235.008 0.378443 235.008 0.722404V37.5011C235.008 37.845 235.287 38.1239 235.631 38.1239H246.235C246.579 38.1239 246.858 37.845 246.858 37.5011V0.722404C246.858 0.378443 246.579 0.0996094 246.235 0.0996094Z" fill="#000434"></path>
<path d="M232.305 0.0996094H221.701C221.357 0.0996094 221.078 0.378443 221.078 0.722404V6.98403C221.078 7.32799 221.357 7.60683 221.701 7.60683H232.305C232.649 7.60683 232.928 7.32799 232.928 6.98403V0.722404C232.928 0.378443 232.649 0.0996094 232.305 0.0996094Z" fill="#000434"></path>
<path d="M232.283 9.4925H210.839C210.469 9.4925 210.267 9.64399 210.166 10.0648L207.708 21.8474L205.2 10.0648C205.15 9.69448 204.88 9.4925 204.527 9.4925H194.512C194.141 9.4925 193.889 9.69448 193.838 10.0648L191.33 21.9653L188.991 10.0648C188.89 9.64399 188.671 9.4925 188.317 9.4925H171.148V0.571357C171.148 0.100051 170.828 -0.101936 170.307 0.0495552L160.022 3.38236C159.652 3.48335 159.45 3.80316 159.45 4.15664V8.06174C159.45 9.15585 158.877 9.62715 157.783 9.62715H155.545C155.174 9.62715 154.922 9.87964 154.922 10.25V17.9255C154.922 18.2958 155.174 18.5483 155.545 18.5483H159.298V28.1932C159.298 34.9262 161.756 38.5283 169.835 38.5283C172.966 38.5283 175.424 38.0065 176.77 37.3837C177.191 37.1817 177.292 36.9124 177.292 36.4916V28.9843C177.292 28.5635 176.922 28.3615 176.4 28.614C175.727 28.9338 175.036 29.0853 174.262 29.0853C172.175 29.0853 171.131 28.3111 171.131 25.702V18.5483H176.602C176.972 18.5483 177.225 18.279 177.225 17.9255V11.2431L184.16 37.5857C184.261 37.956 184.53 38.1075 184.934 38.1075H195.151C195.521 38.1075 195.673 37.956 195.774 37.5857L199.107 25.5337L202.339 37.5857C202.44 37.956 202.591 38.1075 202.961 38.1075H213.347C213.768 38.1075 214.02 37.956 214.121 37.5857L221.006 11.445V37.4678C221.006 37.8381 221.258 38.0906 221.628 38.0906H232.216C232.586 38.0906 232.839 37.8381 232.839 37.4678V10.0816C232.839 9.71131 232.586 9.45883 232.216 9.45883L232.283 9.4925Z" fill="#000434"></path>
<path d="M278.258 9.02148C268.714 9.02148 262.402 14.9128 262.402 23.4131V24.0864C262.402 32.5867 268.714 38.5286 278.258 38.5286C287.802 38.5286 294.114 32.5867 294.114 24.0864V23.4131C294.114 14.9128 287.802 9.02148 278.258 9.02148ZM282.164 23.9518C282.164 27.8064 280.548 29.3718 278.258 29.3718C275.969 29.3718 274.353 27.8064 274.353 23.9518V23.5815C274.353 19.6763 275.969 18.1109 278.258 18.1109C280.548 18.1109 282.164 19.6763 282.164 23.5815V23.9518Z" fill="#000434"></path>
<path d="M64.4005 0.183594C28.8338 0.183594 0 28.8154 0 64.2643C0 99.7132 28.8338 128.665 64.4005 128.665C99.9672 128.665 128.7 99.831 128.7 64.2643C128.7 28.6976 99.8662 0.183594 64.4005 0.183594ZM64.4005 111.799C38.2262 111.799 16.866 90.3376 16.866 64.2643C16.866 38.191 38.2262 16.9486 64.4005 16.9486C90.5748 16.9486 111.716 38.09 111.716 64.2643C111.716 90.4386 90.5748 111.799 64.4005 111.799Z" fill="#EF373C"></path>
<path d="M80.309 34.8906C73.0542 34.8906 66.9609 41.0849 66.9609 48.4575C66.9609 55.83 73.0542 61.7045 80.309 61.7045C87.5637 61.7045 93.657 55.7291 93.657 48.4575C93.657 41.1859 87.7825 34.8906 80.309 34.8906Z" fill="#EF373C"></path>
<path d="M80.309 34.8906C73.0542 34.8906 66.9609 41.0849 66.9609 48.4575C66.9609 55.83 73.0542 61.7045 80.309 61.7045C87.5637 61.7045 93.657 55.7291 93.657 48.4575C93.657 41.1859 87.7825 34.8906 80.309 34.8906Z" fill="#EF373C"></path>
<path d="M80.309 34.8906C73.0542 34.8906 66.9609 41.0849 66.9609 48.4575C66.9609 55.83 73.0542 61.7045 80.309 61.7045C87.5637 61.7045 93.657 55.7291 93.657 48.4575C93.657 41.1859 87.7825 34.8906 80.309 34.8906Z" fill="#EF373C"></path>
<path d="M80.309 67.043C73.0542 67.043 66.9609 72.9175 66.9609 80.391C66.9609 87.8646 73.0542 93.7391 80.309 93.7391C87.5637 93.7391 93.657 87.7636 93.657 80.391C93.657 73.0184 87.7825 67.043 80.309 67.043Z" fill="#EF373C"></path>
<path d="M80.309 67.043C73.0542 67.043 66.9609 72.9175 66.9609 80.391C66.9609 87.8646 73.0542 93.7391 80.309 93.7391C87.5637 93.7391 93.657 87.7636 93.657 80.391C93.657 73.0184 87.7825 67.043 80.309 67.043Z" fill="#EF373C"></path>
<path d="M80.309 67.043C73.0542 67.043 66.9609 72.9175 66.9609 80.391C66.9609 87.8646 73.0542 93.7391 80.309 93.7391C87.5637 93.7391 93.657 87.7636 93.657 80.391C93.657 73.0184 87.7825 67.043 80.309 67.043Z" fill="#EF373C"></path>
<path d="M48.2738 34.8906C40.8003 34.8906 34.9258 41.0849 34.9258 48.4575C34.9258 55.83 40.8003 61.7045 48.2738 61.7045C55.7474 61.7045 61.7229 55.7291 61.7229 48.4575C61.7229 41.1859 55.6296 34.8906 48.2738 34.8906Z" fill="#EF373C"></path>
<path d="M48.2738 34.8906C40.8003 34.8906 34.9258 41.0849 34.9258 48.4575C34.9258 55.83 40.8003 61.7045 48.2738 61.7045C55.7474 61.7045 61.7229 55.7291 61.7229 48.4575C61.7229 41.1859 55.6296 34.8906 48.2738 34.8906Z" fill="#EF373C"></path>
<path d="M48.2738 34.8906C40.8003 34.8906 34.9258 41.0849 34.9258 48.4575C34.9258 55.83 40.8003 61.7045 48.2738 61.7045C55.7474 61.7045 61.7229 55.7291 61.7229 48.4575C61.7229 41.1859 55.6296 34.8906 48.2738 34.8906Z" fill="#EF373C"></path>
<path d="M48.2738 67.043C40.8003 67.043 34.9258 72.9175 34.9258 80.391C34.9258 87.8646 40.8003 93.7391 48.2738 93.7391C55.7474 93.7391 61.7229 87.7636 61.7229 80.391C61.7229 73.0184 55.6296 67.043 48.2738 67.043Z" fill="#EF373C"></path>
<path d="M48.2738 67.043C40.8003 67.043 34.9258 72.9175 34.9258 80.391C34.9258 87.8646 40.8003 93.7391 48.2738 93.7391C55.7474 93.7391 61.7229 87.7636 61.7229 80.391C61.7229 73.0184 55.6296 67.043 48.2738 67.043Z" fill="#EF373C"></path>
<path d="M48.2738 67.043C40.8003 67.043 34.9258 72.9175 34.9258 80.391C34.9258 87.8646 40.8003 93.7391 48.2738 93.7391C55.7474 93.7391 61.7229 87.7636 61.7229 80.391C61.7229 73.0184 55.6296 67.043 48.2738 67.043Z" fill="#EF373C"></path>
<path d="M154.943 119.947V109.477C162.804 116.176 172.011 119.644 182.178 119.644C190.88 119.644 196.738 115.352 196.738 106.229C196.738 97.1055 189.197 96.1629 179.451 94.6984C165.935 92.4934 154.102 90.1874 154.102 73.8432C154.102 58.6604 164.79 50.3789 180.394 50.3789C191.604 50.3789 200.407 53.6276 205.642 57.398V67.2449C198.724 62.0101 189.197 59.1822 180.192 59.1822C171.186 59.1822 165.009 63.8953 165.009 72.4798C165.009 81.0643 172.028 82.8485 181.673 84.4307C195.189 86.7367 207.662 88.521 207.662 104.966C207.662 120.267 197.192 128.75 182.414 128.75C170.16 128.75 161.558 125.081 154.96 119.947H154.943Z" fill="#000434"></path>
<path d="M215.806 98.9907V97.5263C215.806 79.8186 226.915 68.1875 242.098 68.1875C257.281 68.1875 266.404 77.4116 266.404 96.3648V101.179H226.494C227.117 114.072 235.5 120.149 247.754 120.149C254.032 120.149 259.587 118.466 264.721 115.537V124.02C260.95 126.225 254.874 128.733 245.65 128.733C227.218 128.733 215.789 118.365 215.789 98.9738L215.806 98.9907ZM226.494 93.8568H256.035C255.513 82.0237 250.161 76.1492 241.795 76.1492C232.891 76.1492 227.134 82.7475 226.494 93.8568Z" fill="#000434"></path>
<path d="M277.736 69.6519H288.104V83.2693C292.094 73.9442 299.113 68.1875 309.061 68.1875C320.069 68.1875 326.97 75.3076 326.97 89.3457V127.269H316.282V91.6518C316.282 82.1247 311.771 76.9908 304.23 76.9908C297.833 76.9908 293.221 80.4414 290.713 85.4743C289.249 88.1002 288.407 91.231 288.407 94.4796V127.269H277.719V69.6519H277.736Z" fill="#000434"></path>
<path d="M338.18 99.0912V97.6268C338.18 79.7171 348.128 68.187 361.644 68.187C371.289 68.187 377.046 73.7417 380.614 81.4845V44.5039H391.303V127.268H380.934V115.217C376.945 123.7 370.245 128.733 361.139 128.733C346.899 128.733 338.197 117.523 338.197 99.0912H338.18ZM381.035 98.6704V97.9297C381.035 84.6322 374.639 76.5527 364.792 76.5527C355.786 76.5527 349.07 84.4134 349.07 98.0307V98.7714C349.07 112.911 355.567 120.249 365.095 120.249C374.622 120.249 381.018 112.709 381.018 98.6704H381.035Z" fill="#000434"></path>
<path d="M403.152 90.6082V89.1438C403.152 65.1577 416.669 50.3789 439.291 50.3789C450.081 50.3789 458.665 53.7285 463.395 57.297V67.2449C458.059 62.8517 449.677 59.3842 439.931 59.3842C422.324 59.3842 414.48 71.1163 414.48 89.4468V90.1874C414.48 109.982 423.183 119.829 437.221 119.829C448.953 119.829 457.134 111.127 457.134 95.6242V94.2608H434.292V85.4575H467.822V94.3618C467.822 116.883 454.929 128.733 437.12 128.733C416.686 128.733 403.169 115.958 403.169 90.5913L403.152 90.6082Z" fill="#000434"></path>
<path d="M479.215 69.6524H489.584V84.953C493.152 75.0051 498.387 68.5078 506.87 68.5078C509.597 68.5078 511.684 69.1306 512.846 69.7702V80.038C511.381 79.2973 508.453 78.5735 505.625 78.5735C496.401 78.5735 489.903 87.158 489.903 96.904V127.286H479.215V69.6692V69.6524Z" fill="#000434"></path>
<path d="M520.172 51.1189C520.172 46.6078 522.579 44.9414 526.871 44.9414C531.163 44.9414 533.57 46.7256 533.57 51.1189C533.57 55.5121 531.466 57.3973 526.871 57.3973C522.276 57.3973 520.172 55.9329 520.172 51.1189ZM521.535 69.5503H532.224V127.268H521.535V69.5503Z" fill="#000434"></path>
<path d="M543.75 99.0912V97.6268C543.75 79.7171 553.698 68.187 567.214 68.187C576.859 68.187 582.616 73.7417 586.184 81.4845V44.5039H596.873V127.268H586.504V115.217C582.515 123.7 575.816 128.733 566.709 128.733C552.469 128.733 543.767 117.523 543.767 99.0912H543.75ZM586.588 98.6704V97.9297C586.588 84.6322 580.192 76.5527 570.345 76.5527C561.34 76.5527 554.624 84.4134 554.624 98.0307V98.7714C554.624 112.911 561.121 120.249 570.648 120.249C580.175 120.249 586.571 112.709 586.571 98.6704H586.588Z" fill="#000434"></path>
</svg>